<svg width="53" height="53" viewBox="0 0 53 53" fill="none" xmlns="http://www.w3.org/2000/svg">
<path d="M0 10C0 4.47715 4.47715 0 10 0H40C45.5228 0 50 4.47715 50 10V40C50 45.5228 45.5228 50 40 50H10C4.47715 50 0 45.5228 0 40V10Z" fill="black"/>
<path d="M33.0467 12.0049C37.852 12.0049 42 15.9468 42 20.8104C42 30.2973 32.65 38 25 38C17.35 38 8 30.2988 8 20.8104C8 15.9468 12.148 12.0049 16.9533 12.0049C22.8013 12.0049 24.8555 16.4996 25 16.8276C25.7291 15.3354 26.8757 14.0858 28.3012 13.23C29.7266 12.3742 31.3699 11.9487 33.0325 12.0049H33.0467ZM34.5738 21.178V20.9136H31.2022V21.1766C31.2022 24.502 28.4113 27.2222 25 27.2222C21.5759 27.2222 18.8106 24.502 18.8106 21.1766V20.9136H15.4134V21.1766C15.4134 23.6735 16.4008 26.012 18.2184 27.7736C20.0275 29.5364 22.4589 30.5181 24.9872 30.5066C27.5151 30.5174 29.9458 29.5358 31.7547 27.7736C32.6419 26.9181 33.3475 25.8932 33.8294 24.7598C34.3113 23.6264 34.5597 22.4078 34.5597 21.1766L34.5738 21.178Z" fill="white"/>
</svg>
