<svg width="54" height="53" viewBox="0 0 54 53" fill="none" xmlns="http://www.w3.org/2000/svg">
<g clip-path="url(#clip0_201_1430)">
<rect x="0.294922" width="53" height="53" rx="11" fill="black"/>
<path d="M20.4601 16C21.467 16 22.3972 16.0717 23.2507 16.2866C24.1042 16.4299 24.8042 16.7255 25.4276 17.0837C26.0509 17.442 26.5112 17.9525 26.8277 18.6064C27.1346 19.2602 27.2976 20.0573 27.2976 20.9261C27.2976 21.9382 27.0674 22.807 26.5208 23.4608C26.0509 24.1146 25.2837 24.6968 24.3439 25.1267C25.6673 25.485 26.6743 26.1388 27.288 27.0076C27.9017 27.8764 28.2949 28.9601 28.2949 30.1961C28.2949 31.2082 28.0648 32.077 27.6716 32.8025C27.288 33.528 26.6647 34.1818 25.9646 34.6117C25.2646 35.0506 24.4111 35.4089 23.4809 35.6238C22.5506 35.8388 21.6204 35.9821 20.6902 35.9821L10.2949 36V16H20.4601ZM19.8367 24.1146C20.6902 24.1146 21.3903 23.8997 21.9273 23.5325C22.4643 23.1652 22.7041 22.5204 22.7041 21.7232C22.7041 21.2844 22.6274 20.8545 22.4739 20.5678C22.3205 20.2812 22.0903 20.0573 21.7739 19.8424C21.467 19.6991 21.1505 19.5558 20.767 19.4841C20.3834 19.4124 19.9902 19.4124 19.5299 19.4124H15.0323V24.1236C15.0323 24.1146 19.8367 24.1146 19.8367 24.1146ZM20.0669 32.6682C20.5368 32.6682 20.9971 32.5965 21.3903 32.5249C21.7739 32.4532 22.1671 32.3099 22.4739 32.086C22.7808 31.8621 23.0205 31.6471 23.2507 31.2888C23.4041 30.9306 23.5576 30.4917 23.5576 29.9812C23.5576 28.9691 23.2507 28.2436 22.6274 27.7331C22.004 27.2942 21.1505 27.0793 20.1436 27.0793H15.0323V32.6592H20.0669V32.6682Z" fill="white"/>
<path d="M35.028 33.1199C35.5946 33.6984 36.4401 33.9831 37.5645 33.9831C38.3403 33.9831 39.0463 33.7696 39.6129 33.4047C40.1795 32.9686 40.5282 32.5415 40.6676 32.1054H44.1194C43.5528 33.8319 42.7073 35.06 41.5829 35.852C40.4584 36.5728 39.1161 37 37.4948 37C36.3704 37 35.3767 36.7864 34.4614 36.4215C33.5462 36.0656 32.8402 35.5583 32.2038 34.8375C31.5675 34.1878 31.0794 33.3958 30.7918 32.4614C30.4431 31.5269 30.2949 30.5213 30.2949 29.3644C30.2949 28.2876 30.4344 27.2731 30.7918 26.3386C31.1491 25.4042 31.6373 24.6122 32.2736 23.8913C32.9099 23.2417 33.6857 22.6632 34.5312 22.3073C35.4464 21.9513 36.3616 21.7288 37.4948 21.7288C38.6977 21.7288 39.7524 21.9424 40.6676 22.4496C41.5829 22.9569 42.2889 23.5265 42.8555 24.3897C43.4221 25.1817 43.8405 26.1162 44.1281 27.1218C44.2676 28.1274 44.3373 29.1419 44.2676 30.2899H34.043C34.043 31.4646 34.4614 32.5415 35.028 33.1199ZM39.4735 25.5555C38.9766 25.0482 38.2008 24.7635 37.2856 24.7635C36.6493 24.7635 36.1612 24.9059 35.7341 25.1194C35.3069 25.333 35.028 25.6267 34.7491 25.9115C34.4702 26.1963 34.322 26.5611 34.2522 26.9171C34.1825 27.2731 34.1128 27.5667 34.1128 27.8515H40.4584C40.319 26.7836 39.9616 26.0628 39.4735 25.5555ZM33.2673 18H41.1645V19.94H33.2673V18Z" fill="white"/>
</g>
<defs>
<clipPath id="clip0_201_1430">
<rect width="53" height="53" fill="white" transform="translate(0.294922)"/>
</clipPath>
</defs>
</svg>
