<svg width="54" height="53" viewBox="0 0 54 53" fill="none" xmlns="http://www.w3.org/2000/svg">
<g clip-path="url(#clip0_201_1401)">
<path d="M50.295 25C50.295 38.8071 39.1021 50 25.295 50C11.4878 50 0.294952 38.8071 0.294952 25C0.294952 11.1929 11.4878 0 25.295 0C39.1021 0 50.295 11.1929 50.295 25Z" fill="url(#paint0_linear_201_1401)"/>
<path d="M37.0632 14.0777C34.9099 13.1092 32.5784 12.4062 30.1497 12.0001C30.1284 11.9994 30.1072 12.0033 30.0877 12.0114C30.0681 12.0195 30.0506 12.0316 30.0364 12.0469C29.7449 12.5624 29.4049 13.2341 29.1783 13.7496C26.6023 13.3747 23.9826 13.3747 21.4066 13.7496C21.18 13.2185 20.8399 12.5624 20.5323 12.0469C20.5161 12.0157 20.4676 12.0001 20.419 12.0001C17.9903 12.4062 15.675 13.1092 13.5055 14.0777C13.4893 14.0777 13.4731 14.0933 13.4569 14.1089C9.05295 20.4666 7.83863 26.6525 8.4377 32.7759C8.4377 32.8071 8.45389 32.8384 8.48627 32.854C11.4006 34.916 14.2017 36.1656 16.9703 36.9935C17.0189 37.0092 17.0675 36.9935 17.0836 36.9623C17.7313 36.1031 18.3142 35.1971 18.8161 34.2442C18.8485 34.1818 18.8161 34.1193 18.7513 34.1037C17.8284 33.76 16.9541 33.3539 16.096 32.8852C16.0312 32.854 16.0312 32.7603 16.0798 32.7134C16.2579 32.5884 16.436 32.4478 16.6141 32.3229C16.6465 32.2916 16.6951 32.2916 16.7274 32.3073C22.2971 34.7597 28.304 34.7597 33.8089 32.3073C33.8413 32.2916 33.8898 32.2916 33.9222 32.3229C34.1003 32.4635 34.2784 32.5884 34.4565 32.729C34.5213 32.7759 34.5213 32.8696 34.4403 32.9008C33.5984 33.3851 32.7079 33.7756 31.785 34.1193C31.7202 34.1349 31.7041 34.213 31.7202 34.2599C32.2384 35.2127 32.8212 36.1188 33.4527 36.9779C33.5012 36.9935 33.5498 37.0092 33.5984 36.9935C36.3832 36.1656 39.1843 34.916 42.0986 32.854C42.131 32.8384 42.1472 32.8071 42.1472 32.7759C42.8596 25.6996 40.9653 19.5606 37.128 14.1089C37.1118 14.0933 37.0956 14.0777 37.0632 14.0777ZM19.658 29.0425C17.9903 29.0425 16.5979 27.5585 16.5979 25.7309C16.5979 23.9032 17.958 22.4192 19.658 22.4192C21.3742 22.4192 22.7343 23.9188 22.7181 25.7309C22.7181 27.5585 21.3581 29.0425 19.658 29.0425ZM30.9431 29.0425C29.2754 29.0425 27.883 27.5585 27.883 25.7309C27.883 23.9032 29.243 22.4192 30.9431 22.4192C32.6593 22.4192 34.0193 23.9188 34.0032 25.7309C34.0032 27.5585 32.6593 29.0425 30.9431 29.0425Z" fill="white"/>
</g>
<defs>
<linearGradient id="paint0_linear_201_1401" x1="25.295" y1="0" x2="25.295" y2="50" gradientUnits="userSpaceOnUse">
<stop/>
<stop offset="1"/>
</linearGradient>
<clipPath id="clip0_201_1401">
<rect width="52.765" height="52.765" fill="white" transform="translate(0.294952)"/>
</clipPath>
</defs>
</svg>
