<svg width="54" height="53" viewBox="0 0 54 53" fill="none" xmlns="http://www.w3.org/2000/svg">
<path d="M48.8784 26.5C48.8821 29.4087 48.3094 32.2893 47.1933 34.9754C46.0772 37.6615 44.4399 40.0998 42.3759 42.1493C40.3289 44.1928 37.8992 45.8128 35.2257 46.9168C32.5523 48.0208 29.6875 48.5871 26.795 48.5833C14.5984 48.5833 4.71169 38.6966 4.71169 26.5C4.70397 20.8376 6.87903 15.39 10.7846 11.2901C12.8454 9.11554 15.3282 7.38436 18.0811 6.2025C20.834 5.02065 23.7991 4.41296 26.795 4.41664C29.6875 4.4129 32.5523 4.9792 35.2257 6.08318C37.8992 7.18715 40.3289 8.80717 42.3759 10.8506M48.8784 26.5C48.8821 23.5913 48.3094 20.7106 47.1933 18.0246C46.0772 15.3385 44.4399 12.9002 42.3759 10.8506M48.8784 26.5C45.6564 26.5 36.7679 25.2854 28.8123 28.7779C20.17 32.5729 13.9127 38.4592 11.1854 42.1206M48.8784 26.5C48.8784 29.2195 48.387 31.8232 47.4871 34.2291M42.3759 10.8506C40.4314 8.91307 38.1432 7.35432 35.6284 6.25398M18.5138 6.0221C21.9698 9.21204 29.5113 17.3343 32.3159 25.3958C35.1204 33.4584 36.1584 43.3716 36.7988 46.1928M4.88173 23.7396C9.05327 23.9913 20.096 24.2177 27.1627 21.2C34.2294 18.1823 40.31 12.6316 42.3958 10.8705M6.36794 34.906C8.31383 39.6163 11.8233 43.5122 16.3054 45.9377" stroke="black" stroke-width="4" stroke-linecap="round" stroke-linejoin="round"/>
</svg>
