<svg width="54" height="53" viewBox="0 0 54 53" fill="none" xmlns="http://www.w3.org/2000/svg">
<g clip-path="url(#clip0_201_1409)">
<path d="M53.1796 26.5878C53.1796 24.7539 53.0343 22.9101 52.7243 21.106H27.8524V31.4946H42.0954C41.5043 34.8451 39.0756 38.218 36.2948 40.1014L36.8245 46.4332L44.7372 46.4332C49.7271 41.7345 53.1796 34.7956 53.1796 26.5878Z" fill="black"/>
<path d="M27.2097 52.765C34.3412 52.765 40.3554 50.4529 44.7372 46.462L36.2949 40.1014C33.9242 41.6939 30.7852 42.4326 27.2194 42.4326C20.3211 42.4326 14.1216 37.8373 12.023 31.659H3.58057V38.3841C8.06933 47.2007 17.212 52.765 27.2097 52.765Z" fill="black"/>
<path d="M12.023 31.659C10.8134 28.4482 11.341 24.3168 12.5506 21.106L13.0783 14.7742L3.58054 14.2465C-0.515105 21.5516 -0.609245 30.6857 3.4864 37.9908L12.023 31.659Z" fill="black"/>
<path d="M27.7187 10.3285C31.5697 10.271 35.2917 11.6709 38.0806 14.2406L45.7925 6.7904C40.9093 2.36052 34.4282 -0.0749493 27.7187 0.00175851C17.5057 0.00175851 8.16602 5.42515 3.58057 14.2465L12.553 21.106C14.6869 14.9214 20.6718 10.3285 27.7187 10.3285Z" fill="black"/>
</g>
<defs>
<clipPath id="clip0_201_1409">
<rect width="52.765" height="52.765" fill="white" transform="translate(0.414673)"/>
</clipPath>
</defs>
</svg>
