<svg width="54" height="53" viewBox="0 0 54 53" fill="none" xmlns="http://www.w3.org/2000/svg">
<g clip-path="url(#clip0_201_1426)">
<path d="M0.294922 13C0.294922 5.8203 6.11522 0 13.2949 0H40.2949C47.4746 0 53.2949 5.8203 53.2949 13V40C53.2949 47.1797 47.4746 53 40.2949 53H13.2949C6.11522 53 0.294922 47.1797 0.294922 40V13Z" fill="black"/>
<path d="M36.2361 8H18.3537C14.4553 8 11.2949 11.1553 11.2949 15.0476V32.9016C11.2949 36.7939 14.4553 39.9492 18.3537 39.9492H23.5302L26.7023 45L30.1185 39.9492H36.2361C40.1346 39.9492 43.2949 36.7939 43.2949 32.9016V15.0476C43.2949 11.1553 40.1346 8 36.2361 8Z" fill="white"/>
<path d="M23.5302 23.2698V25.854H26.1185V23.2698H28.4714V25.854H31.0596V23.2698H33.6479V20.6857H31.0596V18.3365H33.6479V15.7524H31.0596V13.1683H28.4714V15.7524H26.1185V13.1683H23.5302V15.7524H20.942V18.3365H23.5302V20.6857H20.942V23.2698H23.5302Z" fill="black"/>
<path d="M27.2949 35.0159C20.3302 35.0159 16.3929 30.6307 15.2949 28.4381C15.0596 27.9683 14.8913 27.0371 15.5301 26.5587C16.4714 25.854 17.5812 26.6061 18.3537 27.7334C19.3733 29.2212 22.589 32.1968 27.2949 32.1968C33.1772 32.1968 36.0008 28.2032 36.2361 27.7334C36.589 27.0286 37.6478 26.0889 38.8243 26.5587C39.7655 26.9346 39.5302 27.9683 39.2949 28.4381C38.1968 30.6307 34.2596 35.0159 27.2949 35.0159Z" fill="black"/>
<path d="M25.8832 18.3365H28.2361V20.6857H25.8832V18.3365Z" fill="white"/>
</g>
<defs>
<clipPath id="clip0_201_1426">
<rect width="53" height="53" fill="white" transform="translate(0.294922)"/>
</clipPath>
</defs>
</svg>
