<svg width="54" height="53" viewBox="0 0 54 53" fill="none" xmlns="http://www.w3.org/2000/svg">
<path opacity="0.2" d="M11.1895 40.1251C9.0404 39.874 6.9644 37.8972 6.34625 35.5113C6.18154 34.8753 6.14497 33.8079 6.26691 33.1885C6.46856 32.1657 6.94763 31.2973 7.74049 30.5181C9.0012 29.2777 10.5575 28.6343 13.9749 27.9388C16.0329 27.5197 20.0989 26.9007 20.2108 26.9894C20.2443 27.0159 20.2885 27.2277 20.309 27.46C20.4219 28.7367 21.0112 30.1723 21.8328 31.1725C22.0194 31.3994 22.195 31.6175 22.2233 31.6571C22.2593 31.7075 22.2103 31.8099 22.0593 31.9993C21.7381 32.4027 18.0679 36.1624 17.2799 36.8957C16.523 37.5998 15.1892 38.7827 14.8493 39.0514C14.4521 39.3653 13.7637 39.7364 13.262 39.9072C12.838 40.0515 11.9711 40.2056 11.7071 40.1834C11.662 40.1797 11.4292 40.1537 11.1897 40.1257L11.1895 40.1251ZM20.0404 52.9734C19.0246 52.8525 18.2821 52.6312 17.4755 52.2091C15.7366 51.2979 14.5587 49.706 14.1326 47.692C13.989 47.0131 13.9891 45.4543 14.1328 44.7531C14.514 42.8933 15.3168 41.5111 18.0515 38.0062C19.7101 35.8804 22.7068 32.2423 22.7993 32.2423C22.8276 32.2423 23.0481 32.3801 23.2894 32.5484C24.1401 33.1418 25.1491 33.5419 26.2547 33.7246C26.3663 33.743 26.4701 33.7785 26.4851 33.8035C26.5001 33.8284 26.5991 34.9925 26.7051 36.3903C27.0877 41.4396 27.2354 44.4611 27.1617 45.7246C27.0922 46.9141 26.7669 48.1918 26.2752 49.2051C25.5691 50.6607 24.3913 51.8401 23.032 52.452C22.1026 52.8706 20.9163 53.0774 20.0406 52.9734H20.0404ZM33.702 50.185C31.4084 49.7536 29.7084 47.775 28.9225 44.6173C28.5569 43.1519 27.4054 36.0107 27.249 34.2348L27.2121 33.8177L27.4514 33.7896C28.7874 33.6333 29.3141 33.4958 30.1633 33.0813C30.4711 32.9312 30.9032 32.6807 31.1234 32.5247C31.3435 32.3688 31.5371 32.2412 31.5533 32.2412C31.5857 32.2412 33.7855 34.7002 34.9087 35.992C36.6513 37.9963 38.0536 39.7169 38.5349 40.4418C39.9301 42.5426 40.4248 44.9192 39.8496 46.7582C39.5824 47.6129 39.1079 48.3183 38.4168 48.8884C37.1317 49.9486 35.232 50.4705 33.7019 50.1839L33.702 50.185ZM44.6858 41.1646C42.9254 40.9856 41.2135 40.23 39.713 38.9693C38.8493 38.2436 36.3228 35.9288 35.1238 34.7644C34.1139 33.7839 32.1445 31.7706 32.1445 31.7187C32.1445 31.6917 32.264 31.5279 32.4099 31.3544C33.1606 30.4621 33.6291 29.5095 33.9467 28.2294L34.005 27.9948L36.7497 28.0197C44.5734 28.0907 45.2729 28.1299 46.8171 28.5837C48.7004 29.1371 50.2122 30.2971 51.0253 31.8122C51.9582 33.5509 51.9365 35.6961 50.9657 37.6832C50.6539 38.3212 50.4323 38.6419 49.934 39.1758C49.0288 40.1456 47.9417 40.7575 46.6494 41.0248C46.1117 41.136 45.1072 41.2076 44.6858 41.1648V41.1646ZM34.0965 26.5466C34.0791 26.1232 34.0258 25.5879 33.9779 25.3571C33.7889 24.4453 33.4122 23.5114 32.9541 22.8188C32.8351 22.6389 32.7506 22.4575 32.7662 22.4157C32.8269 22.2539 37.0694 18.696 38.8385 17.3232C40.052 16.3817 40.7563 15.9136 41.6255 15.471C44.3045 14.1066 46.7838 14.1869 48.6269 15.6975C49.4739 16.3916 50.1882 17.5533 50.4877 18.7236C50.6852 19.4954 50.6983 20.7114 50.5169 21.4557C49.9566 23.7563 48.2341 25.3375 45.6024 25.9666C44.6965 26.1833 41.3847 26.6417 38.702 26.9218C37.4404 27.0535 34.4955 27.316 34.2794 27.316H34.1279L34.0965 26.5464V26.5466ZM9.00252 26.8664C7.02622 26.66 5.40225 25.9534 4.30578 24.819C2.51106 22.9612 2.20292 20.0769 3.51857 17.4548C4.41075 15.6749 5.83514 14.5463 7.71825 14.1267C8.41179 13.9722 9.8964 13.9846 10.6498 14.1511C11.745 14.3932 12.9118 14.8948 13.8819 15.5402C15.0701 16.3315 18.9063 19.4036 20.9322 21.1852L21.9324 22.0654L21.8373 22.2142C21.785 22.2959 21.6408 22.5041 21.5167 22.6768C20.989 23.4112 20.526 24.5924 20.3601 25.6285L20.2702 26.1892L20.0191 26.2223C19.0712 26.3479 15.0188 26.7007 13.2378 26.8129C11.9158 26.8961 9.56904 26.9261 9.00271 26.8672L9.00252 26.8664ZM31.9517 21.5999C31.1091 20.6984 29.5622 19.9328 28.1583 19.7222C27.8417 19.6748 27.5743 19.628 27.564 19.6182C27.5538 19.6084 27.4993 18.9373 27.4428 18.1268C27.1125 13.3843 27.0112 10.5587 27.1064 8.74838C27.2004 6.96471 27.3569 6.15939 27.8031 5.1644C28.2588 4.14811 29.2698 2.93395 30.179 2.31079C32.1531 0.957995 34.5802 0.576956 36.8339 1.26595C40.3624 2.34454 42.4601 6.30184 41.5187 10.1038C41.072 11.9073 39.9249 13.6878 37.227 16.765C36.2126 17.9221 32.3798 21.8309 32.2596 21.8309C32.209 21.8309 32.0704 21.727 31.9517 21.5998V21.5999ZM19.9353 19.0181C15.5235 14.5044 14.2293 12.8471 13.5917 10.8948C13.2998 10.0014 13.2203 9.41227 13.2548 8.39579C13.2893 7.37746 13.3939 6.90325 13.7597 6.10918C14.4553 4.59897 15.6351 3.58241 17.3628 3.00387C18.5793 2.59671 19.7511 2.54733 20.9147 2.85445C21.5478 3.02154 22.4722 3.50746 23.0183 3.96028C24.0121 4.78429 24.8174 6.09459 25.1449 7.42051C25.3788 8.36706 25.7207 10.6795 26.1581 14.2734C26.571 17.666 26.7781 19.5609 26.7405 19.6035C26.7209 19.6258 26.521 19.6702 26.2962 19.7024C25.0264 19.884 23.8621 20.3926 22.879 21.195C22.6774 21.3596 22.4771 21.4944 22.4339 21.4944C22.3907 21.4944 21.2659 20.3797 19.9343 19.0174L19.9353 19.0181Z" fill="black"/>
<path d="M20.0404 52.0436C19.0246 51.9227 18.2821 51.7014 17.4755 51.2793C15.7366 50.368 14.5587 48.7762 14.1326 46.7622C13.989 46.0833 13.9891 44.5244 14.1328 43.8233C14.514 41.9635 15.3168 40.5812 18.0515 37.0763C19.7101 34.9506 22.7068 31.3125 22.7993 31.3125C22.8276 31.3125 23.0481 31.4502 23.2894 31.6185C24.1401 32.2119 25.1491 32.6121 26.2547 32.7947C26.3663 32.8131 26.4701 32.8486 26.4851 32.8736C26.5001 32.8986 26.5991 34.0626 26.7051 35.4604C27.0877 40.5097 27.2354 43.5313 27.1617 44.7948C27.0922 45.9842 26.7669 47.262 26.2752 48.2753C25.5691 49.7308 24.3913 50.9102 23.032 51.5222C22.1026 51.9408 20.9163 52.1475 20.0406 52.0436H20.0404ZM33.702 49.2552C31.4084 48.8238 29.7084 46.8451 28.9225 43.6874C28.5569 42.222 27.4054 35.0809 27.249 33.305L27.2121 32.8877L27.4514 32.8598C28.7874 32.7034 29.3141 32.5658 30.1633 32.1515C30.4711 32.0013 30.9032 31.7508 31.1234 31.5948C31.3435 31.4389 31.5371 31.3113 31.5533 31.3113C31.5857 31.3113 33.7855 33.7703 34.9087 35.0621C36.6513 37.0664 38.0536 38.787 38.5349 39.5119C39.9301 41.6127 40.4248 43.9894 39.8496 45.8284C39.5824 46.683 39.1079 47.3883 38.4168 47.9586C37.1317 49.0187 35.232 49.5407 33.7019 49.254L33.702 49.2552ZM44.6858 40.2347C42.9254 40.0558 41.2135 39.3 39.713 38.0394C38.8493 37.3138 36.3228 34.9989 35.1238 33.8346C34.1139 32.854 32.1445 30.8407 32.1445 30.7888C32.1445 30.7619 32.264 30.598 32.4099 30.4245C33.1606 29.5323 33.6291 28.5796 33.9467 27.2995L34.005 27.0649L36.7497 27.0898C44.5734 27.1608 45.2729 27.2001 46.8171 27.6538C48.7004 28.2072 50.2122 29.3673 51.0253 30.8824C51.9582 32.621 51.9365 34.7663 50.9657 36.7533C50.6539 37.3914 50.4323 37.7121 49.934 38.246C49.0288 39.2158 47.9417 39.8276 46.6494 40.0949C46.1117 40.2062 45.1072 40.2778 44.6858 40.2349V40.2347ZM34.0965 25.6168C34.0791 25.1934 34.0258 24.6581 33.9779 24.4272C33.7889 23.5154 33.4122 22.5816 32.9541 21.8889C32.8351 21.7091 32.7506 21.5277 32.7662 21.4859C32.8269 21.3239 37.0694 17.7661 38.8385 16.3932C40.052 15.4518 40.7563 14.9836 41.6255 14.5411C44.3045 13.1767 46.7838 13.257 48.6269 14.7676C49.4739 15.4617 50.1882 16.6234 50.4877 17.7938C50.6852 18.5656 50.6983 19.7816 50.5169 20.5258C49.9566 22.8264 48.2341 24.4076 45.6024 25.0368C44.6965 25.2535 41.3847 25.7119 38.702 25.9919C37.4404 26.1236 34.4955 26.3862 34.2794 26.3862H34.1279L34.0965 25.6165V25.6168ZM9.00252 25.9366C7.02622 25.7302 5.40225 25.0235 4.30578 23.8892C2.51106 22.0314 2.20292 19.147 3.51857 16.5249C4.41075 14.745 5.83514 13.6165 7.71825 13.1968C8.41179 13.0423 9.8964 13.0547 10.6498 13.2212C11.745 13.4633 12.9118 13.9648 13.8819 14.6103C15.0701 15.4016 18.9063 18.4737 20.9322 20.2553L21.9324 21.1355L21.8373 21.2843C21.785 21.3661 21.6408 21.5742 21.5167 21.747C20.989 22.4813 20.526 23.6626 20.3601 24.6986L20.2702 25.2592L20.0191 25.2924C19.0712 25.418 15.0188 25.7709 13.2378 25.883C11.9158 25.9662 9.56904 25.9963 9.00271 25.9373L9.00252 25.9366ZM31.9517 20.67C31.1091 19.7686 29.5622 19.0029 28.1583 18.7924C27.8417 18.7449 27.5743 18.6981 27.564 18.6883C27.5538 18.6785 27.4993 18.0074 27.4428 17.1969C27.1125 12.4544 27.0112 9.62883 27.1064 7.81847C27.2004 6.0348 27.3569 5.22949 27.8031 4.23458C28.2588 3.21829 29.2698 2.00414 30.179 1.38097C32.1531 0.0280874 34.5802 -0.352859 36.8339 0.336043C40.3624 1.41463 42.4601 5.37193 41.5187 9.17387C41.072 10.9774 39.9249 12.7579 37.227 15.8351C36.2126 16.9921 32.3798 20.901 32.2596 20.901C32.209 20.901 32.0704 20.7971 31.9517 20.6699V20.67ZM19.9353 18.0883C15.5235 13.5745 14.2293 11.9171 13.5917 9.96496C13.2998 9.07159 13.2203 8.48245 13.2548 7.46588C13.2893 6.44755 13.3939 5.97334 13.7597 5.17928C14.4553 3.66907 15.6351 2.65259 17.3628 2.07406C18.5793 1.6668 19.7511 1.61752 20.9147 1.92464C21.5478 2.09172 22.4722 2.57765 23.0183 3.03038C24.0121 3.85447 24.8174 5.16477 25.1449 6.49069C25.3788 7.43725 25.7207 9.7497 26.1581 13.3434C26.571 16.7361 26.7781 18.631 26.7405 18.6736C26.7209 18.6958 26.521 18.7403 26.2962 18.7725C25.0264 18.9541 23.8621 19.4627 22.879 20.2651C22.6774 20.4298 22.4771 20.5645 22.4339 20.5645C22.3907 20.5645 21.2659 19.4498 19.9343 18.0875L19.9353 18.0883Z" fill="black"/>
<path opacity="0.2" d="M34.2586 0.00764029C32.8239 0.0699381 31.4122 0.535126 30.1783 1.38061C29.269 2.00377 28.2581 3.21914 27.8023 4.23543C27.3561 5.23033 27.2005 6.03481 27.1066 7.81848C27.0772 8.37637 27.0738 9.07531 27.0827 9.85246C27.0871 9.46407 27.0897 9.06834 27.1066 8.7483C27.2005 6.96463 27.3561 6.16015 27.8023 5.16525C28.2581 4.14895 29.2691 2.93368 30.1783 2.31043C32.1525 0.957635 34.5798 0.577246 36.8334 1.26624C39.6528 2.12809 41.5534 4.82874 41.7253 7.81848C41.9386 4.47337 39.9428 1.28688 36.8334 0.336424C36.0007 0.0812193 35.1297 -0.0300135 34.2586 0.00764029ZM19.1577 1.73115C18.5671 1.75598 17.9715 1.87072 17.3632 2.07435C15.6356 2.65288 14.4553 3.66954 13.7597 5.17975C13.3938 5.97381 13.2898 6.44784 13.2553 7.46617C13.2457 7.73917 13.2482 8.01246 13.2627 8.28525C13.3016 7.35004 13.4087 6.87109 13.7596 6.10957C14.4553 4.59936 15.6355 3.5827 17.3632 3.00416C18.5797 2.5969 19.7517 2.54818 20.9153 2.85521C21.5484 3.02229 22.4728 3.50664 23.0189 3.95936C24.0126 4.78346 24.8171 6.09488 25.1446 7.4208C25.3784 8.36735 25.7213 10.6789 26.1587 14.2727C26.4378 16.5666 26.5821 17.8763 26.6612 18.6912C26.6753 18.686 26.7367 18.677 26.7403 18.6731C26.7778 18.6305 26.5716 16.7355 26.1586 13.3429C25.7212 9.74915 25.3784 7.43753 25.1446 6.49098C24.8171 5.16506 24.0126 3.85364 23.0189 3.02955C22.4728 2.57673 21.5484 2.09248 20.9153 1.92539C20.3335 1.77197 19.7481 1.70623 19.1577 1.73106V1.73115ZM9.16232 13.0887C8.61022 13.084 8.06434 13.1203 7.71757 13.1977C5.83437 13.6174 4.40979 14.7448 3.51771 16.5246C2.89927 17.7569 2.65436 19.0441 2.73908 20.2584C2.80645 19.3284 3.05541 18.3757 3.51761 17.4545C4.40979 15.6746 5.83437 14.5472 7.71748 14.1275C8.41102 13.9729 9.89591 13.9847 10.6494 14.1511C11.7445 14.3932 12.9112 14.895 13.8812 15.5403C15.0695 16.3316 18.906 19.4031 20.9319 21.1846L21.5375 21.7185C21.6557 21.5532 21.7884 21.3612 21.8374 21.2846L21.9331 21.1356L20.9319 20.2548C18.906 18.4733 15.0695 15.4018 13.8812 14.6105C12.9112 13.965 11.7445 13.4634 10.6494 13.2213C10.2726 13.1381 9.71432 13.0932 9.16232 13.0887ZM45.4393 13.5754C44.2542 13.537 42.9654 13.8593 41.6259 14.5415C40.7567 14.9841 40.0511 15.4524 38.8376 16.3939C37.0685 17.7667 32.8266 21.3242 32.766 21.4861C32.7503 21.528 32.8348 21.7093 32.9537 21.8892C33.0004 21.9599 33.0431 22.0426 33.0881 22.1181C33.894 21.3654 37.2648 18.5442 38.8376 17.3237C40.0511 16.3822 40.7567 15.9139 41.6259 15.4713C44.3048 14.107 46.7838 14.1877 48.6269 15.6983C49.4738 16.3924 50.1881 17.5535 50.4876 18.7239C50.5614 19.0121 50.6002 19.3674 50.622 19.7319C50.666 19.0744 50.6247 18.3297 50.4876 17.7941C50.1881 16.6237 49.4738 15.4608 48.6269 14.7666C47.7054 14.0114 46.6243 13.6137 45.4393 13.5754ZM34.0046 27.065L33.9476 27.2993C33.6298 28.5794 33.1614 29.5325 32.4108 30.4247C32.2648 30.5982 32.1439 30.7611 32.1439 30.788C32.1439 30.797 32.4271 31.0834 32.5304 31.1947C33.2066 30.3471 33.6484 29.4345 33.9476 28.2291L34.0046 27.9948L36.7506 28.0203C44.5743 28.0913 45.2735 28.1294 46.8178 28.5833C48.701 29.1367 50.212 30.297 51.025 31.8121C51.4059 32.5219 51.619 33.3008 51.6821 34.1077C51.7613 32.9713 51.5505 31.8616 51.025 30.8823C50.212 29.3672 48.701 28.2069 46.8178 27.6534C45.2776 27.2008 44.5652 27.1611 36.8002 27.0904C35.7207 27.1882 34.402 27.3156 34.2789 27.3156H34.1279L34.1169 27.0668L34.0046 27.065ZM31.5532 31.311C31.5369 31.311 31.3426 31.4384 31.1225 31.5942C30.9023 31.7501 30.4714 32.0015 30.1636 32.1518C29.3144 32.566 28.7867 32.7037 27.4507 32.8601L27.2116 32.8873L27.2483 33.305C27.2574 33.4078 27.2973 33.6695 27.3128 33.8061L27.4508 33.7899C28.7867 33.6335 29.3144 33.4959 30.1636 33.0816C30.4715 32.9314 30.9023 32.6799 31.1224 32.524C31.3426 32.3681 31.5369 32.2408 31.5531 32.2408C31.5856 32.2408 33.785 34.701 34.9082 35.9927C36.651 37.997 38.0544 39.7172 38.5358 40.4421C39.436 41.7976 39.9548 43.2668 40.0597 44.6335C40.1741 43.0231 39.6451 41.1828 38.5358 39.5122C38.0544 38.7874 36.651 37.0672 34.9082 35.0629C33.785 33.7712 31.5856 31.311 31.5532 31.311ZM22.8001 31.3128C22.7074 31.3128 19.7102 34.9512 18.0516 37.077C15.317 40.5818 14.5145 41.9637 14.1333 43.8235C14.041 44.2738 14.0151 45.0673 14.0413 45.765C14.0559 45.3745 14.0819 45.004 14.1333 44.7533C14.5145 42.8935 15.317 41.5116 18.0516 38.0068C19.7101 35.8809 22.7075 32.2426 22.8 32.2426C22.8282 32.2426 23.0483 32.3793 23.2895 32.5476C24.1403 33.141 25.1489 33.5419 26.2545 33.7245C26.3661 33.7429 26.4695 33.7794 26.4846 33.8045C26.4997 33.8294 26.5995 34.9928 26.7054 36.3905C26.9824 40.0456 27.1315 42.6054 27.1674 44.2376C27.19 42.768 27.0464 39.9611 26.7054 35.4607C26.5994 34.0629 26.4997 32.8978 26.4846 32.8728C26.4695 32.8478 26.3661 32.8131 26.2545 32.7947C25.1489 32.6121 24.1403 32.2113 23.2895 31.6179C23.0483 31.4496 22.8282 31.3128 22.8 31.3128H22.8001Z" fill="white"/>
<path d="M11.1894 39.1952C9.04032 38.9442 6.96432 36.9674 6.34617 34.5815C6.18145 33.9455 6.14489 32.878 6.26683 32.2588C6.46848 31.236 6.94755 30.3675 7.74041 29.5884C9.00112 28.3479 10.5574 27.7044 13.9748 27.0089C16.0328 26.5899 20.0988 25.9709 20.2107 26.0596C20.2442 26.086 20.2884 26.2979 20.3089 26.5303C20.4218 27.8068 21.0111 29.2426 21.8327 30.2427C22.0193 30.4696 22.1949 30.6878 22.2232 30.7273C22.2592 30.7777 22.2102 30.8801 22.0592 31.0696C21.738 31.4728 18.0678 35.2326 17.2799 35.9659C16.5229 36.67 15.1892 37.8529 14.8492 38.1216C14.452 38.4355 13.7636 38.8067 13.262 38.9774C12.8379 39.1218 11.971 39.2758 11.7071 39.2536C11.6619 39.2499 11.4291 39.2239 11.1896 39.196L11.1894 39.1952Z" fill="#171717"/>
<path opacity="0.2" d="M20.2106 26.0588C20.0986 25.9702 16.0332 26.5897 13.9751 27.0087C10.5577 27.7042 9.00033 28.347 7.73971 29.5874C6.94685 30.3666 6.46901 31.236 6.26735 32.2588C6.19593 32.6218 6.18443 33.1345 6.21581 33.6281C6.22778 33.4704 6.24219 33.3161 6.26735 33.1887C6.46901 32.1659 6.94676 31.2965 7.73971 30.5173C9.00033 29.2769 10.5577 28.634 13.9751 27.9385C16.0332 27.5195 20.0986 26.9001 20.2106 26.9887C20.244 27.0152 20.2894 27.2267 20.3099 27.4591C20.4229 28.7356 21.0122 30.1727 21.8338 31.1728C21.8619 31.2071 21.8656 31.2123 21.8927 31.2455C21.9141 31.221 22.0481 31.0846 22.0602 31.0694C22.2111 30.8799 22.26 30.7783 22.224 30.7279C22.1958 30.6884 22.0203 30.47 21.8339 30.243C21.0122 29.2429 20.4229 27.8058 20.3099 26.5292C20.2894 26.2968 20.2439 26.0853 20.2106 26.0588Z" fill="white"/>
<path opacity="0.2" d="M27.2099 34.4027C31.3732 34.4027 34.7483 31.0724 34.7483 26.9642C34.7483 22.856 31.3732 19.5256 27.2099 19.5256C23.0465 19.5256 19.6714 22.856 19.6714 26.9642C19.6714 31.0724 23.0465 34.4027 27.2099 34.4027Z" fill="black"/>
<path d="M27.2099 33.4729C31.3732 33.4729 34.7483 30.1426 34.7483 26.0344C34.7483 21.9262 31.3732 18.5958 27.2099 18.5958C23.0465 18.5958 19.6714 21.9262 19.6714 26.0344C19.6714 30.1426 23.0465 33.4729 27.2099 33.4729Z" fill="black"/>
</svg>
