<svg width="54" height="53" viewBox="0 0 54 53" fill="none" xmlns="http://www.w3.org/2000/svg">
<path d="M2.29486 8C2.29486 4.13401 5.42887 1 9.29486 1H45.2949C49.1609 1 52.2949 4.13401 52.2949 8V44C52.2949 47.866 49.1609 51 45.2949 51H9.29486C5.42887 51 2.29486 47.866 2.29486 44V8Z" fill="black"/>
<path d="M20.2949 14.5C20.2949 16.9853 18.2801 19 15.7949 19C13.3096 19 11.2949 16.9853 11.2949 14.5C11.2949 12.0147 13.3096 10 15.7949 10C18.2801 10 20.2949 12.0147 20.2949 14.5Z" fill="white"/>
<path d="M12.2949 22C12.2949 21.4477 12.7426 21 13.2949 21H18.2949C18.8471 21 19.2949 21.4477 19.2949 22V41C19.2949 41.5523 18.8471 42 18.2949 42H13.2949C12.7426 42 12.2949 41.5523 12.2949 41V22Z" fill="white"/>
<path d="M23.2949 21L27.7949 21C28.3471 21 28.7949 21.4477 28.7949 22V23C30.7949 20.5 34.4615 20.3333 36.2949 20.5C42.0102 21.0195 42.9615 26.8333 42.7949 30L42.7948 41C42.7948 41.5523 42.3471 42 41.7949 42L37.2949 42C36.7426 42 36.2949 41.5523 36.2949 41V30C36.1282 28.6667 35.1949 26 32.7949 26C30.3949 26 28.9615 29 28.7949 30V41C28.7949 41.5523 28.3471 42 27.7949 42L23.2949 42C22.7426 42 22.2949 41.5523 22.2949 41V22C22.2949 21.4477 22.7426 21 23.2949 21Z" fill="white"/>
</svg>
