<svg width="53" height="53" viewBox="0 0 53 53" fill="none" xmlns="http://www.w3.org/2000/svg">
<g clip-path="url(#clip0_201_1417)">
<path d="M26.5 0C11.8654 0 0 10.9842 0 24.5368C0.0325889 28.2589 0.935931 31.9217 2.63774 35.2322C4.33956 38.5426 6.7926 41.4088 9.80058 43.6013L9.86904 43.6477V53L18.8967 48.0489C21.1735 48.7004 23.7882 49.0736 26.4912 49.0736H26.5C41.1346 49.0736 53 38.0871 53 24.539C53 10.9909 41.1346 0 26.5 0ZM29.1301 33.0433L22.3837 25.8375L9.21537 33.0367L23.6998 17.6667L30.6141 24.8636L43.619 17.6667L29.1301 33.0433Z" fill="black"/>
</g>
<defs>
<clipPath id="clip0_201_1417">
<rect width="53" height="53" fill="white"/>
</clipPath>
</defs>
</svg>
