<svg width="53" height="54" viewBox="0 0 53 54" fill="none" xmlns="http://www.w3.org/2000/svg">
<rect width="53" height="53" rx="15" fill="black"/>
<path d="M22.5681 31.0909C19.0306 31.0909 15.5728 32.5248 13.5508 33.6489C13.3493 33.7609 13.0567 33.4472 13.1834 33.2546C14.7019 30.9461 16.7499 26.7573 16.7499 22.3636C16.7499 17.5154 14.8796 12.7088 13.7364 10.4835C13.6511 10.3173 13.8175 10.1314 13.9904 10.2022C24.196 14.386 30.0802 26.4945 31.9016 32.4983C31.9511 32.6615 31.7839 32.8038 31.6256 32.7403C30.0379 32.1033 26.5561 31.0909 22.5681 31.0909Z" stroke="white" stroke-width="2" stroke-linecap="round"/>
<path d="M35.0946 32.1828C36.7652 32.2037 38.3656 32.5392 39.2488 32.7852C39.4125 32.8307 39.5621 32.665 39.4983 32.5075C34.9957 21.3899 28.2621 15.8791 24.6436 14.0693C24.4452 13.9702 24.2953 14.2102 24.4569 14.3621C31.0718 20.5789 34.1391 28.5546 34.8987 32.0264C34.9189 32.119 34.9998 32.1817 35.0946 32.1828Z" stroke="white" stroke-width="2" stroke-linecap="round"/>
<path d="M7.29541 42L9.08253 40.8086C10.6616 39.7559 12.6999 39.6857 14.3476 40.6272V40.6272C15.8428 41.4816 17.6719 41.5083 19.1913 40.6979L19.9288 40.3046C21.3302 39.5572 23.029 39.6406 24.3505 40.5215V40.5215C25.7096 41.4276 27.464 41.4881 28.8823 40.6776L29.3449 40.4133C30.7632 39.6028 32.5176 39.6633 33.8767 40.5694V40.5694C35.1982 41.4504 36.897 41.5337 38.2984 40.7863L38.8068 40.5152C40.4607 39.6331 42.4584 39.6947 44.0548 40.6771L46.2045 42" stroke="white" stroke-width="2" stroke-linecap="round"/>
<path d="M11.2954 39.8182L9.97579 37.1789C9.91177 37.0509 9.99907 36.899 10.1419 36.8899L43.1913 34.7803C43.4011 34.7669 43.4868 35.0448 43.306 35.152L34.2045 40.5455" stroke="white" stroke-width="2" stroke-linecap="round"/>
</svg>
