<svg width="53" height="53" viewBox="0 0 53 53" fill="none" xmlns="http://www.w3.org/2000/svg">
<rect width="53" height="53" rx="15" fill="black"/>
<path d="M42.626 22.7319C43.0352 21.5204 43.1772 20.2367 43.0425 18.9666C42.9079 17.6966 42.4997 16.4696 41.8453 15.3678C40.8738 13.7025 39.3918 12.3841 37.6124 11.6024C35.833 10.8208 33.8481 10.6161 31.9433 11.0179C31.0842 10.0624 30.0281 9.29878 28.8456 8.77833C27.6632 8.25789 26.3816 7.99258 25.0868 8.00016C23.1386 7.99585 21.2394 8.60204 19.6631 9.73128C18.0867 10.8605 16.9148 12.4545 16.3162 14.2832C15.0479 14.5397 13.8498 15.0604 12.802 15.8105C11.7541 16.5605 10.8807 17.5226 10.2401 18.6324C9.26357 20.2949 8.84696 22.2202 9.05028 24.1311C9.2536 26.0421 10.0664 27.8401 11.3716 29.2664C10.9639 30.4769 10.8227 31.7592 10.9573 33.0278C11.092 34.2964 11.4993 35.5221 12.1522 36.6231C13.1228 38.2915 14.6055 39.6127 16.3866 40.3962C18.1676 41.1796 20.1549 41.3848 22.0618 40.9821C22.9202 41.9366 23.9751 42.6995 25.1562 43.2199C26.3372 43.7403 27.6172 44.0062 28.9107 43.9999C30.859 44.0042 32.7582 43.3981 34.3346 42.2688C35.9109 41.1396 37.0828 39.5456 37.6813 37.7169C38.9494 37.4602 40.1472 36.9393 41.1948 36.1892C42.2423 35.4391 43.1154 34.4771 43.7557 33.3673C44.7348 31.7054 45.153 29.7794 44.95 27.8677C44.7469 25.956 43.9331 24.1577 42.626 22.7319ZM28.9107 41.6524C27.3109 41.6537 25.7616 41.0996 24.5344 40.0872C24.5883 40.0575 24.6932 40.0058 24.7534 39.9666L32.0212 35.8283C32.2036 35.7261 32.355 35.5778 32.4599 35.3986C32.5648 35.2195 32.6194 35.016 32.6179 34.8091V24.7011L35.6884 26.4495C35.705 26.4572 35.7193 26.4691 35.7298 26.4839C35.7404 26.4987 35.7469 26.516 35.7487 26.534V34.9C35.7487 38.626 32.6886 41.6481 28.9107 41.6524ZM14.2182 35.4634C13.4171 34.0976 13.128 32.4977 13.4013 30.943C13.4549 30.9759 13.5502 31.0321 13.6168 31.0696L20.8863 35.2097C21.0673 35.3142 21.2733 35.3694 21.4831 35.3694C21.6928 35.3694 21.8988 35.3142 22.0798 35.2097L30.948 30.1513V33.6479C30.9496 33.6659 30.9465 33.6839 30.939 33.7003C30.9315 33.7167 30.9198 33.731 30.9051 33.7416L23.5585 37.924C20.2876 39.7818 16.1094 38.6775 14.2182 35.4554V35.4634ZM12.3142 19.811C13.1115 18.4432 14.3715 17.3959 15.8733 16.8527V25.3737C15.8722 25.5805 15.9269 25.7839 16.0318 25.963C16.1366 26.1421 16.2879 26.2905 16.47 26.3929L25.3406 31.4453L22.2588 33.1999C22.2438 33.2099 22.2265 33.216 22.2084 33.2176C22.1904 33.2193 22.1723 33.2164 22.1557 33.2093L14.8102 29.0258C11.5422 27.1609 10.4223 23.038 12.3075 19.8113L12.3142 19.811ZM37.5449 25.6026L28.6741 20.5499L31.7417 18.7998C31.7567 18.7901 31.774 18.7841 31.7919 18.7824C31.8098 18.7808 31.8279 18.7835 31.8445 18.7904L39.1902 22.9742C40.3154 23.6154 41.2321 24.5595 41.8329 25.6959C42.4338 26.8323 42.6941 28.1141 42.5832 29.3911C42.4723 30.6682 41.9948 31.8876 41.2067 32.9067C40.4186 33.9258 39.3525 34.7023 38.1332 35.1454V26.6263C38.1356 26.419 38.0819 26.2148 37.9775 26.0349C37.8732 25.8549 37.722 25.7057 37.5397 25.6026H37.5449ZM40.6026 21.0633C40.5313 21.02 40.4594 20.9777 40.3868 20.9365L33.1176 16.7967C32.9366 16.6921 32.7306 16.637 32.5209 16.637C32.3111 16.637 32.1052 16.6921 31.9242 16.7967L23.0536 21.8476V18.3524C23.0531 18.3344 23.0568 18.3166 23.0646 18.3003C23.0723 18.284 23.0839 18.2697 23.0982 18.2587L30.4437 14.0763C31.5692 13.4363 32.8562 13.1257 34.1541 13.1809C35.4521 13.2361 36.7072 13.6548 37.7727 14.388C38.8382 15.1212 39.6699 16.1386 40.1705 17.321C40.6711 18.5035 40.8199 19.8022 40.5995 21.065L40.6026 21.0633ZM21.3796 27.2992L18.3077 25.5509C18.2919 25.5423 18.2784 25.5302 18.2682 25.5156C18.258 25.5009 18.2514 25.4842 18.2489 25.4666V17.1001C18.2479 15.8178 18.6174 14.5618 19.3143 13.4793C20.0111 12.3969 21.0064 11.5327 22.1834 10.9883C23.3604 10.4439 24.6703 10.2417 25.9597 10.4054C27.249 10.5692 28.4643 11.0921 29.4631 11.9128C29.4093 11.9428 29.3125 11.9943 29.2442 12.0334L21.9764 16.1718C21.7942 16.2742 21.6429 16.4226 21.5381 16.6017C21.4332 16.7808 21.3785 16.9841 21.3796 17.191V27.2992ZM23.0476 23.7511L26.9986 21.5002L30.9483 23.7511V28.2495L26.9972 30.5001L23.0461 28.2495L23.0476 23.7511Z" fill="white"/>
</svg>
