<svg width="53" height="53" viewBox="0 0 53 53" fill="none" xmlns="http://www.w3.org/2000/svg">
<path d="M26.4695 0C14.7772 0 5.30347 9.33046 5.30347 20.837C5.30347 34.5169 22.5128 53 26.4695 53C30.4235 53 47.6329 35.0343 47.6329 20.837C47.6302 9.33046 38.1565 0 26.4695 0ZM26.374 36.4355C18.0519 36.4355 11.3088 29.7933 11.3088 21.6012C11.3088 13.4119 18.0519 6.76963 26.374 6.76963C34.6934 6.76963 41.4365 13.4119 41.4365 21.6039C41.4365 29.7933 34.6934 36.4355 26.374 36.4355Z" fill="black"/>
<path d="M26.3737 9.6356C25.9996 9.6356 25.6307 9.65418 25.2645 9.68868C26.1614 10.7077 26.7055 12.0372 26.7055 13.4915C26.7055 16.7051 24.0597 19.3111 20.7956 19.3111C19.7167 19.3144 18.6573 19.0227 17.7322 18.4675C16.807 17.9123 16.0512 17.1148 15.5466 16.1611C14.6974 17.7931 14.2197 19.6401 14.2197 21.6012C14.2197 28.209 19.6598 33.5668 26.3737 33.5668C33.085 33.5668 38.5278 28.209 38.5278 21.5986C38.5278 14.9908 33.085 9.63295 26.3737 9.63295V9.6356Z" fill="#030303"/>
</svg>
