<svg width="54" height="53" viewBox="0 0 54 53" fill="none" xmlns="http://www.w3.org/2000/svg">
<g clip-path="url(#clip0_201_1399)">
<path d="M0.765015 26.3829C0.765015 37.1861 7.26129 46.467 16.5572 50.5474C16.483 48.7052 16.544 46.4936 17.0164 44.4891C17.5237 42.3474 20.4111 30.1131 20.4111 30.1131C20.4111 30.1131 19.5683 28.4286 19.5683 25.9389C19.5683 22.0292 21.8343 19.1092 24.6564 19.1092C27.0562 19.1092 28.2156 20.9116 28.2156 23.07C28.2156 25.4824 26.6769 29.0908 25.8857 32.4329C25.2247 35.2315 27.2889 37.5142 30.0498 37.5142C35.0484 37.5142 38.4151 31.094 38.4151 23.4872C38.4151 17.7049 34.5206 13.377 27.4371 13.377C19.4341 13.377 14.4485 19.3452 14.4485 26.0117C14.4485 28.3103 15.1262 29.9311 16.1876 31.1864C16.6757 31.7629 16.7435 31.9947 16.5669 32.6568C16.4403 33.1422 16.1497 34.3108 16.0293 34.774C15.8537 35.4422 15.3123 35.6811 14.7084 35.4344C11.0222 33.9295 9.30552 29.8928 9.30552 25.355C9.30552 17.8605 15.6262 8.874 28.1612 8.874C38.2339 8.874 44.8636 16.163 44.8636 23.9872C44.8636 34.3368 39.1097 42.0687 30.6281 42.0687C27.7799 42.0687 25.1006 40.5291 24.1828 38.7802C24.1828 38.7802 22.6511 44.8589 22.3267 46.0327C21.7673 48.0668 20.6725 50.0999 19.6714 51.6845C22.0989 52.4023 24.6171 52.7667 27.1485 52.7664C41.7174 52.7664 53.5302 40.9543 53.5302 26.3829C53.5302 11.8121 41.7174 0 27.1485 0C12.5782 0 0.765015 11.8121 0.765015 26.3829Z" fill="black"/>
</g>
<defs>
<clipPath id="clip0_201_1399">
<rect width="52.765" height="52.765" fill="white" transform="translate(0.765015)"/>
</clipPath>
</defs>
</svg>
