<svg width="53" height="53" viewBox="0 0 53 53" fill="none" xmlns="http://www.w3.org/2000/svg">
<g clip-path="url(#clip0_201_1410)">
<path d="M26.5622 52.765C41.1328 52.765 52.9447 40.9531 52.9447 26.3825C52.9447 11.8118 41.1328 0 26.5622 0C11.9915 0 0.179688 11.8118 0.179688 26.3825C0.179688 40.9531 11.9915 52.765 26.5622 52.765Z" fill="black"/>
<path d="M44.5023 26.6629C44.5023 24.5129 42.7366 22.7679 40.5611 22.7679C39.4891 22.7679 38.5432 23.173 37.8496 23.8585C35.1696 21.9577 31.4492 20.7113 27.3504 20.5555L29.1476 12.2357L34.9804 13.4509C35.0435 14.9155 36.2731 16.0995 37.7865 16.0995C39.3315 16.0995 40.5926 14.8531 40.5926 13.3263C40.5926 11.7994 39.3315 10.553 37.7865 10.553C36.683 10.553 35.7371 11.1762 35.2957 12.111L28.7692 10.74C28.58 10.7088 28.3909 10.74 28.2332 10.8334C28.0756 10.9269 27.981 11.0827 27.9179 11.2697L25.9316 20.5555C21.7382 20.6801 17.9862 21.8954 15.2747 23.8585C14.5811 23.2041 13.6037 22.7679 12.5632 22.7679C10.3877 22.7679 8.62207 24.5129 8.62207 26.6629C8.62207 28.2521 9.56795 29.592 10.9552 30.2152C10.8922 30.5891 10.8606 30.9942 10.8606 31.3993C10.8606 37.3821 17.8916 42.212 26.5937 42.212C35.2957 42.212 42.3267 37.3821 42.3267 31.3993C42.3267 30.9942 42.2952 30.6203 42.2322 30.2464C43.5248 29.6232 44.5023 28.2521 44.5023 26.6629ZM17.5448 29.4362C17.5448 27.9093 18.806 26.6629 20.3509 26.6629C21.8958 26.6629 23.157 27.9093 23.157 29.4362C23.157 30.9631 21.8958 32.2095 20.3509 32.2095C18.806 32.2095 17.5448 30.9631 17.5448 29.4362ZM33.2148 36.7589C31.2915 38.6597 27.6342 38.7843 26.5622 38.7843C25.4902 38.7843 21.8013 38.6285 19.9095 36.7589C19.6257 36.4785 19.6257 36.0111 19.9095 35.7306C20.1933 35.4502 20.6662 35.4502 20.95 35.7306C22.1481 36.9147 24.7335 37.351 26.5937 37.351C28.4539 37.351 31.0078 36.9147 32.2374 35.7306C32.5212 35.4502 32.9941 35.4502 33.2779 35.7306C33.4986 36.0422 33.4986 36.4785 33.2148 36.7589ZM32.7103 32.2095C31.1654 32.2095 29.9043 30.9631 29.9043 29.4362C29.9043 27.9093 31.1654 26.6629 32.7103 26.6629C34.2553 26.6629 35.5164 27.9093 35.5164 29.4362C35.5164 30.9631 34.2553 32.2095 32.7103 32.2095Z" fill="white"/>
</g>
<defs>
<clipPath id="clip0_201_1410">
<rect x="0.179688" width="52.765" height="52.765" rx="11" fill="white"/>
</clipPath>
</defs>
</svg>
