<svg width="53" height="53" viewBox="0 0 53 53" fill="none" xmlns="http://www.w3.org/2000/svg">
<g clip-path="url(#clip0_201_1415)">
<path d="M15.37 30.74C23.8586 30.74 30.74 23.8586 30.74 15.37C30.74 6.88139 23.8586 0 15.37 0C6.88139 0 0 6.88139 0 15.37C0 23.8586 6.88139 30.74 15.37 30.74Z" fill="black"/>
<path d="M37.6303 53C46.1189 53 53.0003 46.1186 53.0003 37.63C53.0003 29.1414 46.1189 22.26 37.6303 22.26C29.1416 22.26 22.2603 29.1414 22.2603 37.63C22.2603 46.1186 29.1416 53 37.6303 53Z" fill="black"/>
<path d="M26.4998 51.94C40.55 51.94 51.9398 40.5501 51.9398 26.5C51.9398 12.4499 40.55 1.05997 26.4998 1.05997C12.4497 1.05997 1.05981 12.4499 1.05981 26.5C1.05981 40.5501 12.4497 51.94 26.4998 51.94Z" fill="black"/>
<path fill-rule="evenodd" clip-rule="evenodd" d="M19.9024 26.0169C18.9079 25.3618 18.0781 24.4857 17.4779 23.457C16.898 22.3709 16.6117 21.1522 16.6474 19.9214C16.6032 18.3594 17.1362 16.8359 18.1444 15.6421C19.1919 14.4432 20.5384 13.5432 22.0467 13.0337C23.6876 12.4543 25.4164 12.1635 27.1565 12.1741C28.2953 12.1633 29.4329 12.2505 30.5567 12.4348C31.3606 12.5591 32.1501 12.7629 32.9136 13.0434C33.615 13.2809 34.2482 13.6854 34.7587 14.2219C35.1349 14.6631 35.3375 15.2264 35.3285 15.8062C35.3421 16.1074 35.2962 16.4083 35.1934 16.6918C35.0907 16.9752 34.9331 17.2357 34.7296 17.4582C34.537 17.6632 34.3031 17.8252 34.0434 17.9334C33.7837 18.0417 33.504 18.0937 33.2227 18.0861C32.8356 18.0833 32.4536 17.9976 32.1023 17.8348C31.2375 17.4477 30.3466 17.1217 29.4362 16.8592C28.5979 16.6383 27.7337 16.5311 26.8668 16.5404C25.7379 16.4986 24.6209 16.7837 23.6502 17.3615C23.2401 17.6105 22.9046 17.9652 22.6786 18.3883C22.4526 18.8115 22.3445 19.2876 22.3656 19.7669C22.3595 20.3956 22.5985 21.0019 23.032 21.4574C23.5474 21.9917 24.1563 22.4272 24.8287 22.7421C25.5822 23.1159 26.7059 23.6118 28.1998 24.2299C28.3654 24.2822 28.5268 24.3468 28.6828 24.4231C30.1406 24.9996 31.5383 25.7178 32.8556 26.5675C33.8963 27.2461 34.7738 28.1468 35.4251 29.2048C36.066 30.3162 36.387 31.5834 36.3524 32.8659C36.4062 34.4369 35.9561 35.9839 35.0676 37.2806C34.163 38.5082 32.9115 39.4368 31.4745 39.9468C29.7429 40.5652 27.9131 40.8631 26.0748 40.8259C23.5485 40.9148 21.0341 40.4396 18.7145 39.4349C18.1209 39.1708 17.6004 38.7664 17.1979 38.2564C16.8643 37.7893 16.6914 37.2265 16.7053 36.6527C16.6886 36.35 16.7378 36.0472 16.8496 35.7654C16.9613 35.4835 17.1328 35.2293 17.3523 35.0202C17.813 34.6166 18.4113 34.4056 19.0234 34.4308C19.7045 34.4403 20.3735 34.6125 20.9745 34.9332C21.7212 35.3069 22.3105 35.5871 22.7423 35.7738C23.2354 35.9804 23.7462 36.142 24.2685 36.2568C24.9123 36.3982 25.57 36.4661 26.2291 36.4594C27.3944 36.5424 28.554 36.233 29.5231 35.5806C29.886 35.2967 30.176 34.9304 30.3692 34.5121C30.5623 34.0938 30.6531 33.6355 30.6339 33.1751C30.6353 32.5217 30.3865 31.8926 29.9385 31.4169C29.3465 30.8071 28.6538 30.3039 27.8908 29.9294C26.9891 29.4529 25.7205 28.8733 24.0849 28.1906C22.6216 27.6076 21.2204 26.8794 19.9023 26.0169" fill="white"/>
<path opacity="0.1" fill-rule="evenodd" clip-rule="evenodd" d="M20.1722 0.773764C19.5001 0.548742 18.8129 0.371632 18.1158 0.243764C13.9304 1.58695 10.1257 3.909 7.01755 7.01717C3.90937 10.1253 1.58733 13.93 0.244141 18.1154C0.372031 18.8125 0.549141 19.4997 0.774141 20.1718C0.962056 20.7803 1.19959 21.3723 1.48434 21.942C2.40509 16.8543 4.85749 12.1691 8.51347 8.51309C12.1694 4.85711 16.8547 2.40471 21.9424 1.48396C21.3727 1.19924 20.7806 0.961714 20.1722 0.773764Z" fill="black"/>
<path opacity="0.1" fill-rule="evenodd" clip-rule="evenodd" d="M20.1718 0.773748C15.4774 1.9316 11.1888 4.35081 7.76982 7.76977C4.35087 11.1887 1.93166 15.4773 0.773804 20.1718C0.961719 20.7803 1.19925 21.3723 1.484 21.942C2.40475 16.8543 4.85715 12.1691 8.51313 8.51307C12.1691 4.85709 16.8543 2.4047 21.942 1.48395C21.3724 1.19923 20.7803 0.961698 20.1718 0.773748ZM52.2262 32.8282C52.0383 32.2197 51.8008 31.6276 51.516 31.058C50.5953 36.1457 48.1429 40.8309 44.4869 44.4869C40.8309 48.1428 36.1457 50.5952 31.058 51.516C31.6277 51.8007 32.2197 52.0383 32.8282 52.2262C33.5003 52.4512 34.1875 52.6283 34.8846 52.7562C39.07 51.413 42.8747 49.091 45.9828 45.9828C49.091 42.8746 51.4131 39.0699 52.7562 34.8846C52.6283 34.1875 52.4512 33.5003 52.2262 32.8282Z" fill="black"/>
<path opacity="0.1" fill-rule="evenodd" clip-rule="evenodd" d="M51.5158 31.058C50.595 36.1457 48.1426 40.8309 44.4866 44.4869C40.8306 48.1429 36.1454 50.5953 31.0577 51.516C31.6274 51.8007 32.2194 52.0383 32.8279 52.2262C37.5224 51.0684 41.811 48.6492 45.23 45.2302C48.6489 41.8113 51.0681 37.5226 52.226 32.8282C52.038 32.2197 51.8005 31.6276 51.5158 31.058Z" fill="black"/>
</g>
<defs>
<clipPath id="clip0_201_1415">
<rect width="53" height="53" fill="white"/>
</clipPath>
</defs>
</svg>
