<svg width="54" height="53" viewBox="0 0 54 53" fill="none" xmlns="http://www.w3.org/2000/svg">
<path d="M10.5661 34.1L10.5668 34.0998C12.4933 33.7737 14.1422 32.4706 15.2781 31.0353C15.8401 30.3252 16.2465 29.6193 16.481 29.0523C16.5988 28.7675 16.6635 28.5414 16.69 28.3835C16.6961 28.3472 16.6995 28.3186 16.7014 28.2969C16.685 28.28 16.6603 28.2574 16.6238 28.2298C16.5221 28.1529 16.3731 28.0706 16.1735 27.9852C15.9766 27.901 15.7637 27.8275 15.5423 27.7544C15.5102 27.7438 15.4768 27.7329 15.4424 27.7216C15.264 27.6632 15.0606 27.5967 14.8996 27.5312C14.8994 27.5312 14.8993 27.5311 14.8991 27.531L15.2759 26.6047L10.5661 34.1ZM10.5661 34.1C10.145 34.1716 9.77112 34.3996 9.51249 34.7316L10.3013 35.3462M10.5661 34.1L10.3013 35.3462M10.3013 35.3462L9.51249 34.7316C9.25443 35.0628 9.12743 35.4757 9.1499 35.8911L9.14999 35.8928M10.3013 35.3462L9.14999 35.8928M9.14999 35.8928C9.19163 36.6386 9.63113 37.1756 10.0755 37.5271C10.5179 37.877 11.0669 38.1292 11.587 38.3165C12.3646 38.5965 13.223 38.7811 13.893 38.902C13.9038 38.9513 13.9154 39.0046 13.9275 39.0608C13.984 39.3217 14.0542 39.6459 14.1358 39.931L14.136 39.9316M9.14999 35.8928L14.136 39.9316M14.136 39.9316C14.2067 40.1779 14.3515 40.5179 14.6585 40.8017C14.9869 41.1053 15.4204 41.2694 15.9161 41.2694C16.1992 41.2694 16.4908 41.215 16.7201 41.1703C16.776 41.1594 16.831 41.1485 16.8858 41.1375C17.0827 41.0983 17.2768 41.0596 17.5 41.0258C18.0453 40.9432 18.7249 40.8977 19.6002 41.0467M14.136 39.9316L19.6002 41.0467M44.9144 35.8897L44.9144 35.8904C44.8733 36.6383 44.4313 37.1757 43.9862 37.5265C43.5429 37.8759 42.9927 38.1277 42.472 38.3145C41.6951 38.5933 40.8384 38.7771 40.1718 38.8975C40.1618 38.9427 40.1512 38.9911 40.1402 39.0419C40.0836 39.3012 40.0131 39.6246 39.9302 39.9138C39.8392 40.2348 39.6773 40.5415 39.4126 40.7847C39.1463 41.0293 38.8401 41.1508 38.5586 41.2043C38.0571 41.2996 37.5225 41.1924 37.1896 41.1253M44.9144 35.8897L37.3869 40.1449M44.9144 35.8897C44.9369 35.4742 44.8099 35.0613 44.5518 34.7301L43.763 35.3447M44.9144 35.8897L43.763 35.3447M37.1896 41.1253C37.1895 41.1253 37.1893 41.1252 37.1892 41.1252L37.3869 40.1449M37.1896 41.1253C37.1898 41.1253 37.1899 41.1253 37.1901 41.1254L37.3869 40.1449M37.1896 41.1253C36.2283 40.9323 35.4137 40.8852 34.4649 41.0468M37.3869 40.1449C36.3344 39.9336 35.3931 39.8743 34.297 40.061M34.4649 41.0468C34.4652 41.0467 34.4654 41.0467 34.4657 41.0466L34.297 40.061M34.4649 41.0468C34.1902 41.094 33.8478 41.2483 33.375 41.5454C33.0891 41.7251 32.8262 41.9086 32.5342 42.1124C32.313 42.2668 32.0751 42.4329 31.7978 42.6177C30.6142 43.407 29.0902 44.2673 27.1349 44.2673C25.0674 44.2673 23.5172 43.4229 22.3078 42.6255C22.0101 42.4292 21.7635 42.2578 21.5353 42.0992C21.2558 41.9049 21.0039 41.7298 20.7197 41.5519C20.2472 41.2561 19.8966 41.0976 19.6002 41.0467M34.4649 41.0468L34.297 40.061M34.297 40.061L19.6002 41.0467M43.763 35.3447L44.5518 34.7301C44.2932 34.3982 43.9193 34.1701 43.4982 34.0985L43.4977 34.0984M43.763 35.3447L43.4977 34.0984M43.4977 34.0984C41.6092 33.7781 39.9565 32.482 38.8074 31.0446M43.4977 34.0984L38.8074 31.0446M36.6327 15.6976L36.6328 15.6978C37.1407 16.8694 37.2644 18.3993 37.2699 19.8349C37.274 20.9015 37.2106 22.0099 37.1506 22.9964C37.2459 22.9625 37.3435 22.9247 37.4543 22.8815L37.4684 22.876C37.5751 22.8344 37.6969 22.787 37.8179 22.7441C38.0545 22.6604 38.3951 22.5533 38.7603 22.5533C39.3274 22.5533 39.9532 22.7411 40.4584 23.0854C40.9694 23.4336 41.4792 24.0366 41.495 24.8862L36.6327 15.6976ZM36.6327 15.6976C34.8541 11.5981 30.9027 9.55299 27.0139 9.55299M36.6327 15.6976L27.0139 9.55299M38.8074 31.0446C38.2394 30.3343 37.8262 29.6276 37.587 29.0588M38.8074 31.0446L37.587 29.0588M37.587 29.0588C37.4668 28.773 37.4008 28.5461 37.3736 28.3874M37.587 29.0588L37.3736 28.3874M37.3736 28.3874C37.367 28.3487 37.3635 28.3186 37.3616 28.2963M37.3736 28.3874L37.3616 28.2963M37.3616 28.2963C37.3777 28.2795 37.4023 28.2568 37.4392 28.2289C37.5397 28.1528 37.6874 28.0709 37.8864 27.9858C38.0826 27.9018 38.2952 27.8284 38.5175 27.7549C38.5494 27.7443 38.5827 27.7334 38.6169 27.7222C38.7965 27.6633 39.0011 27.5962 39.1643 27.5299L37.3616 28.2963ZM27.0139 9.55299C23.1459 9.55299 19.2223 11.5734 17.4316 15.7033L27.0139 9.55299ZM12.6029 24.5557L12.6027 24.5565L17.4315 15.7036C16.9227 16.8763 16.7992 18.4108 16.7939 19.8475C16.7899 20.9314 16.8554 22.0566 16.9164 23.0499C16.8869 23.0409 16.8559 23.031 16.8233 23.0202C16.6817 22.973 16.5816 22.9346 16.4689 22.8913C16.3782 22.8565 16.2793 22.8185 16.1439 22.7703C15.9265 22.6928 15.5837 22.5779 15.228 22.5779C14.6756 22.5779 14.1076 22.7587 13.6462 23.0632C13.1865 23.3666 12.7317 23.8644 12.6029 24.5557ZM39.1648 27.5297C40.3432 27.0516 41.5205 26.2416 41.495 24.887L39.1648 27.5297Z" fill="white" stroke="black" stroke-width="2"/>
</svg>
