<svg width="53" height="53" viewBox="0 0 53 53" fill="none" xmlns="http://www.w3.org/2000/svg">
<g clip-path="url(#clip0_201_1418)">
<rect width="53" height="53" rx="15" fill="black"/>
<path d="M6.17546 34.9854C6.26734 34.9854 6.34421 34.9113 6.35921 34.8087L6.86547 30.9669L6.35921 27.0358C6.34609 26.9332 6.26546 26.8591 6.17359 26.8591C6.07984 26.8591 5.99734 26.9351 5.98609 27.0358L5.54359 30.9669L5.98609 34.8068C5.99734 34.9113 6.07984 34.9854 6.17359 34.9854H6.17546Z" fill="white"/>
<path d="M4.51 33.5243C4.6 33.5243 4.675 33.4559 4.68813 33.3533L5.08 30.9669L4.68813 28.5349C4.675 28.4342 4.6 28.3639 4.51 28.3639C4.41438 28.3639 4.34125 28.4342 4.32625 28.5349L4 30.9669L4.32625 33.3533C4.34125 33.454 4.41438 33.5243 4.51 33.5243Z" fill="white"/>
<path d="M8.16221 26.3043C8.15844 26.2462 8.1332 26.1916 8.0915 26.1515C8.0498 26.1113 7.99472 26.0886 7.93721 26.0877C7.87976 26.0882 7.82464 26.1108 7.78315 26.1511C7.74167 26.1914 7.71695 26.2462 7.71408 26.3043L7.29408 30.9669L7.71408 35.4585C7.71789 35.5163 7.74327 35.5705 7.78506 35.61C7.82685 35.6495 7.88192 35.6715 7.93908 35.6713C7.99642 35.671 8.0515 35.6486 8.09324 35.6088C8.13498 35.569 8.16029 35.5146 8.16408 35.4566L8.64034 30.9669L8.16408 26.3043H8.16221Z" fill="white"/>
<path d="M9.72293 35.8518C9.78964 35.8506 9.8535 35.8242 9.90204 35.7779C9.95058 35.7315 9.98031 35.6684 9.98544 35.601L10.4373 30.9669L9.98731 26.1751C9.98216 26.1074 9.95216 26.0441 9.90322 25.9977C9.85429 25.9513 9.78996 25.9251 9.72293 25.9243C9.65553 25.9243 9.59068 25.9504 9.54181 25.9975C9.49294 26.0445 9.4638 26.1088 9.46043 26.177L9.06106 30.9669L9.45856 35.601C9.46194 35.6696 9.49134 35.7342 9.54061 35.7813C9.58988 35.8283 9.65521 35.8543 9.72293 35.8537V35.8518Z" fill="white"/>
<path d="M11.5186 35.9278C11.596 35.9279 11.6706 35.8981 11.727 35.8444C11.7835 35.7908 11.8176 35.7173 11.8223 35.639L12.2461 30.9669L11.8223 26.5209C11.8171 26.4429 11.7828 26.3699 11.7264 26.3166C11.67 26.2633 11.5957 26.2338 11.5186 26.234C11.4416 26.2339 11.3674 26.2638 11.3116 26.3176C11.2557 26.3713 11.2224 26.4448 11.2186 26.5228L10.8436 30.9688L11.2186 35.639C11.2224 35.7169 11.2557 35.7904 11.3116 35.8442C11.3674 35.8979 11.4416 35.9279 11.5186 35.9278Z" fill="white"/>
<path d="M14.0687 30.9688L13.6712 23.7393C13.666 23.6509 13.6279 23.5679 13.5645 23.5068C13.5012 23.4458 13.4173 23.4114 13.33 23.4106C13.2424 23.411 13.1584 23.4452 13.0949 23.5063C13.0315 23.5674 12.9935 23.6508 12.9887 23.7393L12.6362 30.9688L12.9887 35.639C12.9976 35.7245 13.0373 35.8036 13.1003 35.8611C13.1634 35.9186 13.2452 35.9504 13.33 35.9504C13.4148 35.9504 13.4966 35.9186 13.5596 35.8611C13.6226 35.8036 13.6624 35.7245 13.6712 35.639L14.0687 30.9688Z" fill="white"/>
<path d="M15.1586 35.9753C15.2557 35.9754 15.3491 35.9375 15.4193 35.8695C15.4895 35.8016 15.5312 35.7088 15.5355 35.6105V35.6143L15.9086 30.9707L15.5355 22.0863C15.5287 21.9889 15.4858 21.8977 15.4153 21.8312C15.3449 21.7646 15.2521 21.7276 15.1558 21.7276C15.0595 21.7276 14.9667 21.7646 14.8963 21.8312C14.8258 21.8977 14.7829 21.9889 14.7761 22.0863L14.4499 30.9707L14.778 35.6124C14.7833 35.7106 14.8259 35.8031 14.8968 35.8703C14.9677 35.9376 15.0615 35.9745 15.1586 35.9734V35.9753Z" fill="white"/>
<path d="M16.9955 20.9444C16.8879 20.9438 16.7843 20.9854 16.7064 21.0605C16.6284 21.1356 16.5822 21.2383 16.5774 21.3472L16.2736 30.9707L16.5774 35.5649C16.5822 35.6736 16.6285 35.7762 16.7065 35.8509C16.7845 35.9257 16.8881 35.9669 16.9955 35.9658C17.103 35.9674 17.2069 35.9264 17.285 35.8515C17.3631 35.7766 17.4092 35.6738 17.4136 35.5649L17.7605 30.9707L17.4136 21.3472C17.4097 21.238 17.3638 21.1347 17.2856 21.0594C17.2074 20.9841 17.1033 20.9429 16.9955 20.9444Z" fill="white"/>
<path d="M18.8499 35.9753C18.968 35.9773 19.0821 35.9323 19.1677 35.8498C19.2533 35.7673 19.3035 35.6541 19.3074 35.5345V35.5383L19.6261 30.9707L19.3074 21.0242C19.3035 20.9049 19.2536 20.7919 19.1684 20.7095C19.0832 20.6271 18.9695 20.5818 18.8518 20.5834C18.7337 20.5808 18.6195 20.6258 18.5341 20.7084C18.4487 20.791 18.3991 20.9046 18.3961 21.0242L18.1093 30.9707L18.3961 35.5383C18.3999 35.7834 18.6024 35.9753 18.8518 35.9753H18.8499Z" fill="white"/>
<path d="M20.7215 35.9715C20.8492 35.9731 20.9724 35.9238 21.0647 35.8342C21.1569 35.7447 21.2107 35.6221 21.2147 35.4927V35.4965L21.509 30.9726L21.2147 21.2769C21.2098 21.1482 21.1555 21.0266 21.0634 20.9378C20.9713 20.8491 20.8486 20.8003 20.7215 20.8019C20.5941 20.7998 20.471 20.8484 20.3785 20.9372C20.286 21.0259 20.2314 21.1479 20.2265 21.2769L19.9678 30.9726L20.2284 35.4946C20.234 35.7606 20.4515 35.9696 20.7215 35.9696V35.9715Z" fill="white"/>
<path d="M23.4049 30.9726L23.1386 21.6303C23.1337 21.4912 23.0753 21.3595 22.9757 21.2636C22.8762 21.1677 22.7435 21.1152 22.6061 21.1173C22.4682 21.1147 22.3347 21.1673 22.2347 21.2636C22.1347 21.36 22.0762 21.4924 22.0718 21.6322L21.8336 30.9726L22.0718 35.468C22.0767 35.6074 22.1354 35.7393 22.2354 35.8353C22.3353 35.9312 22.4685 35.9835 22.6061 35.981C22.7444 35.983 22.8779 35.9297 22.9776 35.8326C23.0773 35.7354 23.1352 35.6024 23.1386 35.4623V35.468L23.4049 30.9726Z" fill="white"/>
<path d="M24.5035 35.9886C24.8128 35.9886 25.0678 35.7416 25.0735 35.4376L25.3153 30.9745L25.0735 19.8595C25.0686 19.7102 25.0062 19.5687 24.8997 19.4653C24.7931 19.362 24.6509 19.305 24.5035 19.3066C24.356 19.3055 24.2138 19.3626 24.1071 19.4658C24.0004 19.569 23.9374 19.7102 23.9316 19.8595L23.716 30.9707L23.9316 35.4395C23.9372 35.7397 24.1941 35.9886 24.5035 35.9886Z" fill="white"/>
<path d="M26.3949 18.2616C26.237 18.259 26.0843 18.3192 25.9697 18.4293C25.8551 18.5394 25.7876 18.6906 25.7818 18.8506L25.5324 30.9764L25.7836 35.3749C25.7895 35.5338 25.8566 35.6841 25.9705 35.7935C26.0844 35.9029 26.2361 35.9627 26.393 35.9601C26.5505 35.9621 26.7026 35.9013 26.8162 35.7908C26.9299 35.6802 26.9961 35.5288 27.0005 35.3692V35.3749L27.2743 30.9764L27.0005 18.8525C26.9961 18.6932 26.9302 18.5421 26.8169 18.4316C26.7036 18.3211 26.5521 18.26 26.3949 18.2616Z" fill="white"/>
<path d="M28.1237 35.9924L43.4631 36C46.5212 36 49 33.5908 49 30.6173C49 27.6457 46.5212 25.2365 43.4631 25.2365C42.7056 25.2365 41.9818 25.3866 41.3218 25.6545C40.885 20.8057 36.6999 17 31.5962 17C30.3493 17 29.1324 17.2394 28.058 17.6441C27.6399 17.8018 27.5274 17.9633 27.5237 18.2768V35.3559C27.5295 35.518 27.5938 35.6723 27.7044 35.7896C27.815 35.9069 27.9641 35.979 28.1237 35.9924Z" fill="white"/>
</g>
<defs>
<clipPath id="clip0_201_1418">
<rect width="53" height="53" fill="white"/>
</clipPath>
</defs>
</svg>
