<svg width="54" height="53" viewBox="0 0 54 53" fill="none" xmlns="http://www.w3.org/2000/svg">
<g clip-path="url(#clip0_201_1411)">
<path d="M27.3272 0C12.7569 0 0.944702 11.811 0.944702 26.3825C0.944702 40.954 12.7569 52.765 27.3272 52.765C41.8975 52.765 53.7097 40.954 53.7097 26.3825C53.7097 11.811 41.8975 0 27.3272 0ZM40.1986 38.032C39.7749 38.7823 38.9955 39.2044 38.192 39.2044C37.8162 39.2044 37.4285 39.1104 37.0727 38.9126C33.7789 37.0658 30.1893 35.9345 26.3958 35.5504C22.5943 35.1695 18.8408 35.5552 15.2352 36.7064C14.032 37.0906 12.7369 36.4258 12.3531 35.2206C11.9654 34.0134 12.6329 32.7227 13.8401 32.3365C18.0454 30.993 22.4304 30.5361 26.8595 30.9862C31.2806 31.4363 35.4698 32.7555 39.3152 34.9108C40.4225 35.5272 40.8182 36.9255 40.1986 38.032ZM43.3565 30.0185C42.9488 30.8032 42.1494 31.2533 41.3219 31.2533C40.9621 31.2533 40.6024 31.1709 40.2626 30.993C36.2133 28.884 31.8402 27.5781 27.2552 27.1128C22.6343 26.6399 18.0574 27.052 13.6443 28.3248C12.4251 28.671 11.1539 27.9738 10.8062 26.755C10.4544 25.5383 11.1579 24.2671 12.3731 23.9157C17.3538 22.4795 22.5184 22.0194 27.7189 22.547C32.8835 23.0731 37.8162 24.5441 42.3852 26.9249C43.5045 27.5105 43.9442 28.8952 43.3565 30.0185ZM44.4998 23.3517C44.156 23.3517 43.8083 23.2741 43.4765 23.1111C38.6717 20.715 33.5031 19.2228 28.1107 18.6756C22.7102 18.1232 17.3378 18.5501 12.1373 19.9388C10.9141 20.2634 9.65891 19.5378 9.33113 18.3126C9.00335 17.0891 9.73089 15.8311 10.9581 15.5045C16.6943 13.9727 22.6263 13.5062 28.5784 14.1114C34.5224 14.713 40.2226 16.3603 45.5231 19.0038C46.6584 19.569 47.118 20.9477 46.5544 22.0805C46.1547 22.8868 45.3432 23.3517 44.4998 23.3517Z" fill="black"/>
</g>
<defs>
<clipPath id="clip0_201_1411">
<rect width="52.765" height="52.765" fill="white" transform="translate(0.944702)"/>
</clipPath>
</defs>
</svg>
