<svg width="54" height="53" viewBox="0 0 54 53" fill="none" xmlns="http://www.w3.org/2000/svg">
<path d="M1.84993 34.0763C3.50475 39.4861 6.85266 44.2218 11.4008 47.5862C15.949 50.9506 21.4572 52.7659 27.1145 52.765C41.704 52.765 53.5299 40.9522 53.5299 26.3825C53.5299 11.8128 41.704 1.97797e-06 27.1178 1.97797e-06C20.4208 -0.00258873 13.9731 2.53984 9.08024 7.11248C4.18737 11.6851 1.21499 17.9462 0.764954 24.6281L0.774847 24.6478L14.9686 30.4817C16.2488 29.6341 17.765 29.215 19.2987 29.2846L25.7624 19.9056L25.7591 19.7737C25.7617 17.1135 26.8194 14.5631 28.7 12.6817C30.5807 10.8004 33.1309 9.74193 35.791 9.73844C38.4511 9.74193 41.0013 10.8004 42.882 12.6817C44.7627 14.5631 45.8203 17.1135 45.8229 19.7737C45.8219 21.1104 45.5542 22.4334 45.0355 23.6654C44.5168 24.8973 43.7575 26.0134 42.8021 26.9482C41.8467 27.8831 40.7143 28.6179 39.4714 29.1097C38.2284 29.6014 36.8999 29.8403 35.5635 29.8122L26.3164 36.4078C26.3478 37.6296 26.0732 38.8398 25.5177 39.9283C24.9622 41.0169 24.1433 41.9493 23.1356 42.6408C22.1279 43.3323 20.9633 43.7608 19.7477 43.8875C18.5322 44.0142 17.3043 43.835 16.1756 43.3662C15.0924 42.9148 14.1337 42.2093 13.3806 41.3093C12.6275 40.4092 12.1021 39.3411 11.8489 38.1952L1.85323 34.0763H1.84993Z" fill="black"/>
<path d="M16.8187 41.8261C18.1927 42.3506 19.717 42.3192 21.0682 41.7387C22.4194 41.1582 23.4914 40.0741 24.0568 38.7165C24.6221 37.3588 24.6364 35.8343 24.0966 34.4663C23.5568 33.0983 22.5054 31.9943 21.1653 31.3886C19.8365 30.8341 18.3457 30.8105 17.0001 31.3226L20.3738 32.7209C20.8783 32.9309 21.3365 33.2383 21.7223 33.6254C22.108 34.0125 22.4138 34.4719 22.622 34.9771C22.8302 35.4824 22.9369 36.0238 22.9359 36.5703C22.9349 37.1168 22.8263 37.6577 22.6163 38.1623C22.4063 38.6668 22.0989 39.125 21.7118 39.5108C21.3246 39.8965 20.8653 40.2022 20.36 40.4105C19.8548 40.6187 19.3134 40.7254 18.7669 40.7244C18.2204 40.7234 17.6794 40.6148 17.1749 40.4048L13.9101 39.0527C14.5042 40.3036 15.5403 41.2904 16.8187 41.8228V41.8261ZM29.1064 19.7737C29.1073 21.5469 29.8116 23.2473 31.0648 24.5018C32.3181 25.7563 34.0178 26.4623 35.7911 26.4649C37.5643 26.4623 39.264 25.7563 40.5173 24.5018C41.7705 23.2473 42.4748 21.5469 42.4757 19.7737C42.4731 18.0016 41.768 16.3029 40.5149 15.0498C39.2619 13.7968 37.5631 13.0916 35.7911 13.089C34.019 13.0916 32.3202 13.7968 31.0672 15.0498C29.8141 16.3029 29.109 18.0016 29.1064 19.7737ZM35.8009 14.7379C36.461 14.7384 37.1144 14.8688 37.724 15.1218C38.3336 15.3747 38.8874 15.7453 39.3538 16.2123C39.8202 16.6793 40.19 17.2336 40.4422 17.8435C40.6944 18.4535 40.8239 19.1071 40.8235 19.7671C40.8231 20.4271 40.6927 21.0806 40.4397 21.6902C40.1867 22.2998 39.8161 22.8536 39.3491 23.3199C38.8821 23.7863 38.3279 24.1562 37.7179 24.4083C37.108 24.6605 36.4544 24.7901 35.7944 24.7897C34.4614 24.7888 33.1834 24.2584 32.2415 23.3153C31.2996 22.3721 30.7709 21.0934 30.7718 19.7605C30.7727 18.4276 31.303 17.1496 32.2462 16.2076C33.1893 15.2657 34.468 14.7371 35.8009 14.7379Z" fill="black"/>
</svg>
