<svg width="53" height="53" viewBox="0 0 53 53" fill="none" xmlns="http://www.w3.org/2000/svg">
<g clip-path="url(#clip0_201_1419)">
<path d="M53 26.5C53 41.1355 41.1355 53 26.5 53C11.8645 53 0 41.1355 0 26.5C0 11.8645 11.8645 0 26.5 0C41.1355 0 53 11.8645 53 26.5Z" fill="black"/>
<path d="M16.5 27H11.5V32C11.5 35.3137 14.1863 38 17.5 38H19C22.3137 38 25 35.3137 25 32V21.5C25 20.6716 25.6716 20 26.5 20C27.3284 20 28 20.6716 28 21.5V23.5L30 24.5L33 23.5V21C33 17.6863 30.3137 15 27 15H25.5C22.1863 15 19.5 17.6863 19.5 21V31C19.5 31.8284 18.8284 32.5 18 32.5C17.1716 32.5 16.5 31.8284 16.5 31V27Z" fill="white"/>
<path d="M30 27.5L28 26.5V32C28 35.3137 30.6863 38 34 38H35C38.3137 38 41 35.3137 41 32V27H36V31C36 31.8284 35.3284 32.5 34.5 32.5C33.6716 32.5 33 31.8284 33 31V26.5L30 27.5Z" fill="white"/>
</g>
<defs>
<clipPath id="clip0_201_1419">
<rect width="53" height="53" fill="white"/>
</clipPath>
</defs>
</svg>
