<svg width="53" height="53" viewBox="0 0 53 53" fill="none" xmlns="http://www.w3.org/2000/svg">
<g clip-path="url(#clip0_201_1420)">
<rect width="53" height="53" rx="9" fill="black"/>
<path d="M45 26.5C45 32.8513 39.9128 38 33.6375 38C27.3622 38 22.275 32.8513 22.275 26.5C22.275 20.1487 27.3622 15 33.6375 15L45 15L45 26.5Z" fill="white"/>
<path d="M9 26.5C9 20.1487 14.0872 15 20.3625 15C26.6378 15 31.725 20.1487 31.725 26.5C31.725 32.8513 26.6378 38 20.3625 38H9V26.5Z" fill="white"/>
<path d="M31.8375 26.1584C31.8375 21.695 28.6875 18.302 27 17.1634C25.425 18.2261 22.275 21.4218 22.275 26.1584C22.275 30.8951 25.3125 34.5842 27 35.8366C28.6875 34.5842 31.8375 31.7376 31.8375 26.1584Z" fill="#EEEEEE"/>
</g>
<defs>
<clipPath id="clip0_201_1420">
<rect width="53" height="53" fill="white"/>
</clipPath>
</defs>
</svg>
