<svg width="53" height="53" viewBox="0 0 53 53" fill="none" xmlns="http://www.w3.org/2000/svg">
<g clip-path="url(#clip0_201_1414)">
<path d="M47.4619 0H5.47603C4.01254 0.0188481 2.61587 0.607641 1.59022 1.63814C0.564568 2.66864 -0.0069772 4.05737 6.43002e-05 5.50186V47.4981C-0.00691854 48.9479 0.568889 50.3412 1.60123 51.3726C2.63357 52.4039 4.03818 52.9892 5.50708 53H47.4929C48.9618 52.9892 50.3664 52.4039 51.3988 51.3726C52.4311 50.3412 53.0069 48.9479 52.9999 47.4981V5.50186C53.0034 4.78142 52.8628 4.0674 52.5861 3.4007C52.3095 2.734 51.9023 2.12773 51.3878 1.61663C50.8733 1.10553 50.2617 0.699644 49.588 0.422233C48.9144 0.144821 48.1918 0.00133605 47.4619 0V0ZM26.4793 48.4143C20.633 48.3697 15.0437 46.0366 10.9395 41.9275C6.83528 37.8185 4.55188 32.2696 4.59097 26.5C4.55188 20.7304 6.83528 15.1815 10.9395 11.0725C15.0437 6.9634 20.633 4.63029 26.4793 4.58574C32.3283 4.62624 37.9216 6.95758 42.0291 11.0671C46.1367 15.1766 48.4222 20.7278 48.3832 26.5C48.4222 32.2722 46.1367 37.8234 42.0291 41.9329C37.9216 46.0424 32.3283 48.3738 26.4793 48.4143Z" fill="black"/>
<path d="M46 26.4976L31.0453 20L32.2468 24.1634H19.7532L20.9547 20L6 26.5024L20.9648 33L19.7634 28.8366H32.257L31.0555 33L46 26.5024" fill="black"/>
</g>
<defs>
<clipPath id="clip0_201_1414">
<rect width="53" height="53" fill="white"/>
</clipPath>
</defs>
</svg>
