<svg width="53" height="53" viewBox="0 0 53 53" fill="none" xmlns="http://www.w3.org/2000/svg">
<g clip-path="url(#clip0_201_1406)">
<path d="M26.5022 52.765C41.0729 52.765 52.8847 40.9531 52.8847 26.3825C52.8847 11.8118 41.0729 0 26.5022 0C11.9316 0 0.119751 11.8118 0.119751 26.3825C0.119751 40.9531 11.9316 52.765 26.5022 52.765Z" fill="url(#paint0_linear_201_1406)"/>
<path fill-rule="evenodd" clip-rule="evenodd" d="M12.062 26.104C19.753 22.7531 24.8816 20.544 27.4477 19.4767C34.7744 16.4293 36.2968 15.8999 37.2891 15.8824C37.5073 15.8786 37.9953 15.9327 38.3114 16.1892C38.5783 16.4057 38.6517 16.6983 38.6869 16.9036C38.722 17.109 38.7658 17.5767 38.731 17.9422C38.334 22.1139 36.616 32.2375 35.742 36.9099C35.3722 38.8869 34.644 39.5498 33.939 39.6147C32.4069 39.7557 31.2435 38.6022 29.7596 37.6295C27.4376 36.1074 26.1258 35.1599 23.8719 33.6746C21.2672 31.9581 22.9557 31.0147 24.4402 29.4728C24.8287 29.0693 31.5791 22.9293 31.7097 22.3724C31.726 22.3027 31.7412 22.043 31.5869 21.9059C31.4327 21.7688 31.205 21.8157 31.0407 21.853C30.8078 21.9058 27.0984 24.3576 19.9124 29.2084C18.8595 29.9314 17.9058 30.2836 17.0513 30.2652C16.1094 30.2448 14.2973 29.7326 12.9503 29.2947C11.2981 28.7576 9.98495 28.4737 10.0993 27.5616C10.1589 27.0865 10.8131 26.6006 12.062 26.104Z" fill="white"/>
</g>
<defs>
<linearGradient id="paint0_linear_201_1406" x1="26.5022" y1="0" x2="26.5022" y2="52.3736" gradientUnits="userSpaceOnUse">
<stop/>
<stop offset="1"/>
</linearGradient>
<clipPath id="clip0_201_1406">
<rect width="52.765" height="52.765" fill="white" transform="translate(0.119751)"/>
</clipPath>
</defs>
</svg>
