<svg width="54" height="53" viewBox="0 0 54 53" fill="none" xmlns="http://www.w3.org/2000/svg">
<g clip-path="url(#clip0_201_1431)">
<path d="M26.94 52.3913C22.2491 52.3913 17.9431 50.8461 15.1708 48.5385C13.7627 48.9525 11.9617 49.6185 10.8254 50.4446C9.85228 51.1511 9.97393 51.8716 10.1491 52.1622C10.9186 53.4403 23.351 52.9784 26.94 52.5806V52.3913ZM26.94 52.3913C31.6316 52.3913 35.9373 50.8461 38.7099 48.5385C40.1172 48.9525 41.9186 49.6185 43.0553 50.4446C44.0277 51.1511 43.9064 51.8716 43.7309 52.1622C42.9614 53.4403 30.5293 52.9784 26.94 52.5806V52.3913Z" fill="#363636"/>
<path d="M26.9673 24.7225C34.7141 24.6709 40.9226 23.195 43.0265 22.6292C43.528 22.494 43.796 22.252 43.796 22.252C43.7978 22.1824 43.8278 21.0107 43.8278 20.4067C43.8278 10.228 38.9457 0.000368338 26.9388 0C14.932 0.000368338 10.0495 10.2284 10.0495 20.4063C10.0495 21.0111 10.0795 22.1824 10.0817 22.2517C10.0817 22.2517 10.2999 22.4782 10.6993 22.588C12.6418 23.1198 18.9671 24.6691 26.91 24.7225H26.9673ZM48.0186 33.2016C47.5384 31.6807 46.883 29.9072 46.219 28.204C46.219 28.204 45.8373 28.1576 45.6438 28.2125C39.6879 29.9153 32.4684 31.0008 26.9673 30.9352H26.91C21.4396 30.9997 14.2691 29.9271 8.33308 28.2408C8.10627 28.1764 7.65863 28.204 7.65863 28.204C6.99466 29.9072 6.3393 31.6811 5.8591 33.2016C3.56889 40.4542 4.31108 43.4554 4.87587 43.5224C6.08816 43.6668 9.59402 38.0633 9.59402 38.0633C9.59402 43.7574 14.8178 52.5003 26.7801 52.5806H27.0975C39.0595 52.5003 44.2833 43.7574 44.2833 38.0633C44.2833 38.0633 47.7895 43.6668 49.0018 43.5228C49.5662 43.4554 50.3084 40.4538 48.0186 33.2016Z" fill="black"/>
<path d="M22.6665 15.037C21.0376 15.1096 19.6461 13.2837 19.5585 10.9621C19.4702 8.63972 20.718 6.69822 22.3469 6.62566C23.9739 6.55383 25.3651 8.37894 25.4534 10.7013C25.5425 13.024 24.2943 14.9655 22.6665 15.037ZM34.319 10.9621C34.2318 13.2833 32.8402 15.1096 31.2113 15.037C29.5832 14.9652 28.3354 13.024 28.4244 10.7017C28.5128 8.37931 29.9036 6.5542 31.531 6.62566C33.1598 6.69822 34.4077 8.63972 34.319 10.9621Z" fill="white"/>
<path d="M37.2136 18.3157C36.7787 17.3672 32.3947 16.3101 26.9681 16.3101H26.9097C21.4826 16.3101 17.0991 17.3672 16.6638 18.316C16.6432 18.3582 16.6323 18.4044 16.632 18.4512C16.6327 18.5167 16.6536 18.5803 16.6918 18.6339C17.0586 19.1595 21.9261 21.76 26.9097 21.76H26.9681C31.9512 21.76 36.8187 19.1602 37.1855 18.6339C37.224 18.5802 37.2449 18.5162 37.2454 18.4505C37.245 18.4039 37.2341 18.358 37.2136 18.316" fill="#363636"/>
<path d="M24.6684 10.9964C24.7429 11.9136 24.2316 12.7283 23.5283 12.8171C22.8236 12.9062 22.1929 12.2351 22.118 11.318C22.0443 10.4001 22.5548 9.58531 23.257 9.49691C23.9629 9.40703 24.5946 10.0789 24.6684 10.996V10.9964ZM29.1432 11.3029C29.2873 11.0491 30.2676 9.7146 32.2973 10.2004C32.8306 10.3282 33.0773 10.5161 33.1293 10.5898C33.206 10.6988 33.2274 10.8542 33.1491 11.0634C32.9949 11.4782 32.6764 11.4668 32.5001 11.3857C32.386 11.3334 30.9723 10.406 29.6698 11.7898C29.58 11.8845 29.4198 11.9173 29.2682 11.8045C29.1159 11.6911 29.0534 11.462 29.1432 11.3029Z" fill="black"/>
<path d="M26.9673 30.6016H26.91C23.1687 30.6458 18.6325 30.1581 14.2392 29.3057C13.8634 31.4487 13.6366 34.1427 13.8312 37.355C14.3238 45.4743 19.2235 50.5783 26.7865 50.652H27.0934C34.6568 50.5783 39.5561 45.4743 40.0494 37.355C40.2441 34.142 40.0169 31.4487 39.6407 29.3054C35.2471 30.1581 30.7097 30.6461 26.9677 30.6012" fill="white"/>
<path d="M16.3103 29.922V37.9124C16.3103 37.9124 20.0295 38.6505 23.7558 38.1393V30.7692C21.3952 30.6377 18.8494 30.3449 16.3103 29.922Z" fill="black"/>
<path d="M43.796 22.2521C43.796 22.2521 36.5612 24.4997 26.9673 24.5634H26.9101C17.3319 24.5 10.1065 22.2594 10.0818 22.2521L7.65869 28.2037C13.7194 30.0019 21.2304 31.1607 26.9101 31.0933H26.9673C32.647 31.1607 40.1577 30.0019 46.2191 28.2037L43.796 22.2521Z" fill="black"/>
</g>
<defs>
<clipPath id="clip0_201_1431">
<rect width="53" height="53" fill="white" transform="translate(0.294922)"/>
</clipPath>
</defs>
</svg>
