<svg width="40" height="46" viewBox="0 0 40 46" fill="none" xmlns="http://www.w3.org/2000/svg">
<path d="M30.1941 20.8173C29.8431 14.3455 26.3071 10.6405 20.3705 10.6037C16.7911 10.582 13.799 12.0987 11.966 14.8785L15.2333 17.1167C16.607 15.0345 18.7758 14.6033 20.3466 14.6185C22.3031 14.6315 23.7765 15.1992 24.732 16.3085C25.4253 17.1145 25.8911 18.2303 26.123 19.6365C24.3896 19.3418 22.5133 19.2508 20.5113 19.3657C14.865 19.6907 11.238 22.984 11.4806 27.5578C11.6041 29.8783 12.759 31.876 14.735 33.1803C16.4033 34.2832 18.557 34.8205 20.7908 34.6992C23.744 34.5367 26.0601 33.41 27.6765 31.3517C28.9028 29.7873 29.6785 27.7593 30.0208 25.207C31.4291 26.0563 32.4691 27.1722 33.0476 28.5155C34.027 30.7992 34.0833 34.5518 31.0218 37.6112C28.3395 40.2892 25.1155 41.4505 20.2426 41.4852C14.8368 41.4462 10.7483 39.7107 8.09196 36.3328C5.6003 33.1695 4.31546 28.5978 4.2678 22.75C4.31546 16.9 5.60246 12.3305 8.09196 9.165C10.7483 5.78717 14.8368 4.05383 20.2426 4.01483C25.6875 4.056 29.8453 5.79583 32.6056 9.19317C33.9598 10.8572 34.9781 12.9502 35.652 15.3898L39.4783 14.3715C38.6615 11.3663 37.3788 8.77717 35.6346 6.63C32.0965 2.275 26.8965 0.0455 20.2296 0C13.5758 0.0455 8.45813 2.28583 5.0218 6.65383C1.96463 10.543 0.38513 15.9835 0.33313 22.7652C0.38513 29.5468 1.96463 34.957 5.0218 38.8462C8.4603 43.2142 13.6018 45.4545 20.2535 45.5C26.1706 45.4588 30.3393 43.9097 33.7735 40.4798C38.2693 35.9883 38.1328 30.3615 36.653 26.9078C35.5155 24.2537 33.2513 22.1282 30.1963 20.8195L30.1941 20.8173ZM20.5785 30.6908C18.1041 30.8295 15.5345 29.7202 15.4066 27.3412C15.3135 25.5775 16.6633 23.6102 20.7301 23.3762C22.5681 23.2528 24.4144 23.3796 26.2183 23.7532C25.7503 29.6075 23.0008 30.5565 20.5785 30.6908Z" fill="black"/>
</svg>
