<svg width="54" height="53" viewBox="0 0 54 53" fill="none" xmlns="http://www.w3.org/2000/svg">
<path d="M37.838 19.3404C41.0954 21.6772 45.0859 23.0521 49.3958 23.0521V14.729C48.5801 14.7292 47.7666 14.6439 46.9686 14.4742V21.0256C42.659 21.0256 38.6691 19.6507 35.4108 17.3141V34.2991C35.4108 42.7958 28.5473 49.6833 20.0813 49.6833C16.9224 49.6833 13.9863 48.7249 11.5474 47.0812C14.3311 49.9376 18.2131 51.7096 22.508 51.7096C30.9745 51.7096 37.8384 44.8221 37.8384 36.325V19.3404H37.838ZM40.8322 10.9434C39.1675 9.11826 38.0745 6.75956 37.838 4.15192V3.08139H35.5379C36.1169 6.39571 38.0917 9.22726 40.8322 10.9434ZM16.9021 40.5611C15.972 39.3372 15.4694 37.8401 15.4717 36.3007C15.4717 32.4146 18.611 29.2637 22.4841 29.2637C23.2059 29.2635 23.9234 29.3745 24.6112 29.5935V21.0844C23.8074 20.9738 22.996 20.9269 22.1851 20.9441V27.5672C21.4967 27.3481 20.7788 27.2369 20.0569 27.2376C16.1838 27.2376 13.0447 30.3881 13.0447 34.2747C13.0447 37.0229 14.6138 39.4021 16.9021 40.5611Z" fill="black"/>
<path d="M35.4107 17.3139C38.669 19.6505 42.6589 21.0255 46.9685 21.0255V14.474C44.5629 13.9598 42.4333 12.6982 40.8321 10.9434C38.0914 9.22709 36.1168 6.39553 35.5378 3.08139H29.496V36.3247C29.4823 40.2002 26.3484 43.3382 22.4836 43.3382C20.2062 43.3382 18.1829 42.2487 16.9015 40.5611C14.6133 39.4021 13.0442 37.0227 13.0442 34.2749C13.0442 30.3887 16.1834 27.2377 20.0564 27.2377C20.7985 27.2377 21.5137 27.3537 22.1846 27.5674V20.9443C13.8673 21.1167 7.17816 27.9369 7.17816 36.3249C7.17816 40.5121 8.84391 44.3079 11.5474 47.0814C13.9864 48.7249 16.9225 49.6835 20.0814 49.6835C28.5476 49.6835 35.4109 42.7957 35.4109 34.2991V17.3139H35.4107Z" fill="black"/>
<path d="M46.9685 14.4741V12.7026C44.7993 12.7059 42.6726 12.0962 40.8322 10.9433C42.4614 12.7334 44.6067 13.9677 46.9685 14.4741ZM35.5378 3.08144C35.4826 2.7647 35.4402 2.44587 35.4107 2.12582V1.0553H27.0687V34.299C27.0553 38.1739 23.9216 41.312 20.0565 41.312C18.9217 41.312 17.8503 41.0416 16.9016 40.5613C18.1829 42.2488 20.2062 43.3381 22.4837 43.3381C26.3481 43.3381 29.4825 40.2004 29.496 36.3249V3.08144H35.5378ZM22.185 20.9443V19.0585C21.488 18.9629 20.7852 18.9149 20.0816 18.9152C11.6146 18.9151 4.75116 25.8029 4.75116 34.299C4.75116 39.6255 7.44863 44.3198 11.5476 47.0811C8.84411 44.3078 7.17836 40.5118 7.17836 36.3247C7.17836 27.937 13.8673 21.1168 22.185 20.9443Z" fill="black"/>
</svg>
