<svg width="53" height="53" viewBox="0 0 53 53" fill="none" xmlns="http://www.w3.org/2000/svg">
<path fill-rule="evenodd" clip-rule="evenodd" d="M17.7835 21.3987C17.7552 21.4089 17.7245 21.41 17.6955 21.402C17.6666 21.3939 17.6408 21.377 17.6218 21.3537C15.8339 18.981 15.3847 14.9019 15.2754 13.3352C15.2529 13.0335 14.9145 12.8639 14.6435 13.0155C9.12259 16.1236 4 23.4757 4 30.5743C4 42.7694 12.4513 53 27 53C40.6308 53 50 42.4557 50 30.5758C50 15.031 38.9163 4.70284 29.0439 0.0340024C28.9862 0.00670375 28.9222 -0.00448213 28.8587 0.00162344C28.7951 0.00772901 28.7344 0.0308999 28.6829 0.0686948C28.6314 0.10649 28.591 0.157509 28.566 0.216377C28.541 0.275245 28.5323 0.339782 28.5408 0.403187C29.8121 8.78038 28.0557 17.8914 17.7835 21.3987Z" fill="black"/>
</svg>
