<svg width="54" height="53" viewBox="0 0 54 53" fill="none" xmlns="http://www.w3.org/2000/svg">
<g clip-path="url(#clip0_201_1429)">
<path d="M48.1191 0H5.4707C2.6122 0 0.294922 2.31728 0.294922 5.17578V47.8242C0.294922 50.6827 2.6122 53 5.4707 53H48.1191C50.9776 53 53.2949 50.6827 53.2949 47.8242V5.17578C53.2949 2.31728 50.9776 0 48.1191 0Z" fill="black"/>
<path d="M43.9205 6.89H32.7243C31.3522 6.89 30.2399 8.00229 30.2399 9.37437V27.5931C30.2399 28.9652 31.3522 30.0775 32.7243 30.0775H43.9205C45.2926 30.0775 46.4049 28.9652 46.4049 27.5931V9.37437C46.4049 8.00229 45.2926 6.89 43.9205 6.89Z" fill="white"/>
<path d="M20.8655 6.89H9.6693C8.29721 6.89 7.18492 8.00229 7.18492 9.37437V40.8431C7.18492 42.2152 8.29721 43.3275 9.6693 43.3275H20.8655C22.2376 43.3275 23.3499 42.2152 23.3499 40.8431V9.37437C23.3499 8.00229 22.2376 6.89 20.8655 6.89Z" fill="white"/>
</g>
<defs>
<clipPath id="clip0_201_1429">
<rect width="53" height="53" fill="white" transform="translate(0.294922)"/>
</clipPath>
</defs>
</svg>
