<svg width="54" height="53" viewBox="0 0 54 53" fill="none" xmlns="http://www.w3.org/2000/svg">
<path d="M43.61 0.9313C39.1629 -0.749958 33.5888 -0.243213 30.0794 3.17614C26.7832 6.35869 25.765 11.2083 26.1154 15.6364C26.4659 22.0773 29.8758 28.5324 35.7199 31.5634C33.3377 36.2567 30.3446 40.6706 26.6222 44.4072C22.4924 39.4676 19.272 33.7845 17.1219 27.7178C14.825 21.3479 13.5699 14.6608 12.7269 7.95943C9.72436 7.93575 6.71704 7.95943 3.70972 7.94996V8.30989C5.05946 17.8149 7.16695 27.32 11.202 36.0767C13.7025 41.4425 16.8851 46.6331 21.3795 50.5639C22.8145 51.7479 24.4389 53.055 26.4043 52.9982C28.5971 52.8751 30.2215 51.227 31.7607 49.8488C36.6766 45.1129 40.83 39.5481 43.8373 33.4104C46.2273 33.3419 48.6616 33.075 50.9925 32.4674C51.4217 32.3556 51.7133 31.9631 51.7133 31.5196V27.2872C51.7133 26.6028 51.0403 26.12 50.3761 26.2849C49.1992 26.5772 47.9899 26.7424 46.7736 26.7706C43.4585 26.9221 40.0107 25.7571 37.7374 23.2897C35.0143 20.3771 34.1381 16.1384 34.588 12.2691C34.8059 10.6921 35.4168 8.89715 36.9939 8.21991C38.4431 7.55688 40.238 8.31463 40.8584 9.75909C42.2176 12.8327 41.4173 16.2852 40.65 19.4015C42.0803 22.0062 45.6322 22.5651 48.3317 21.9636C50.1361 17.6065 50.7139 12.6528 49.5773 8.04942C48.8148 4.92843 46.6552 2.10108 43.61 0.9313Z" fill="black"/>
</svg>
