<svg width="54" height="53" viewBox="0 0 54 53" fill="none" xmlns="http://www.w3.org/2000/svg">
<g clip-path="url(#clip0_201_1404)">
<path d="M0.589844 25.3272C0.589844 13.3878 0.589844 7.41816 4.29892 3.70908C8.00801 0 13.9776 0 25.917 0H28.0276C39.967 0 45.9366 0 49.6458 3.70908C53.3548 7.41816 53.3548 13.3878 53.3548 25.3272V27.4378C53.3548 39.3772 53.3548 45.3468 49.6458 49.0559C45.9366 52.765 39.967 52.765 28.0276 52.765H25.917C13.9776 52.765 8.00801 52.765 4.29892 49.0559C0.589844 45.3468 0.589844 39.3772 0.589844 27.4378V25.3272Z" fill="black"/>
<path d="M28.5746 37.9908C16.3157 37.9908 9.32359 29.672 9.03224 15.8295H15.1729C15.3746 25.9895 19.9015 30.2931 23.4873 31.1805V15.8295H29.2696V24.592C32.8105 24.2148 36.5303 20.2218 37.7854 15.8295H43.5675C42.6039 21.2423 38.5699 25.2353 35.7012 26.8769C38.5699 28.2079 43.1644 31.6907 44.9124 37.9908H38.5474C37.1804 33.7759 33.7742 30.5149 29.2696 30.0713V37.9908H28.5746Z" fill="white"/>
</g>
<defs>
<clipPath id="clip0_201_1404">
<rect width="52.765" height="52.765" fill="white" transform="translate(0.589844)"/>
</clipPath>
</defs>
</svg>
