<svg width="54" height="53" viewBox="0 0 54 53" fill="none" xmlns="http://www.w3.org/2000/svg">
<g clip-path="url(#clip0_201_1427)">
<path d="M37.6991 33.7592C38.5218 39.6353 31.9038 45.4188 22.9174 46.6769C13.9311 47.9351 5.97925 44.1915 5.15656 38.3153C4.33387 32.4392 10.9518 26.6557 19.9382 25.3976C28.9246 24.1394 36.8764 27.8831 37.6991 33.7592Z" fill="white"/>
<path d="M22.5616 46.4777C13.7834 47.3456 6.20444 43.3706 5.638 37.6167C5.06825 31.8497 11.7231 26.4901 20.4913 25.6189C29.2694 24.7477 36.8484 28.726 37.4049 34.4798C37.9846 40.2469 31.3298 45.6164 22.5616 46.4777ZM40.1079 27.3579C39.3626 27.1294 38.8458 26.9836 39.24 26.0031C40.088 23.8699 40.1708 22.0381 39.2499 20.723C37.5308 18.2684 32.8204 18.3943 27.4276 20.6601C27.4276 20.6601 25.7283 21.3954 26.1656 20.0605C26.9937 17.3906 26.8711 15.1646 25.5759 13.8694C22.6477 10.9412 14.8633 13.9821 8.18531 20.6601C3.19669 25.6387 0.298248 30.9487 0.298248 35.5365C0.298248 44.2947 11.5409 49.6246 22.5351 49.6246C36.9444 49.6246 46.5408 41.2506 46.5408 34.6057C46.5408 30.5777 43.1554 28.302 40.1112 27.3579H40.1079Z" fill="black"/>
<path d="M49.681 11.3155C48.0315 9.485 45.9289 8.12137 43.5848 7.36191C41.2407 6.60245 38.7379 6.47396 36.3283 6.98937C36.0686 7.04505 35.8224 7.15134 35.6038 7.30217C35.3852 7.45299 35.1984 7.6454 35.0541 7.8684C34.9099 8.09141 34.811 8.34064 34.763 8.60188C34.7151 8.86312 34.7191 9.13124 34.7747 9.39094C34.8304 9.65063 34.9367 9.89682 35.0875 10.1154C35.2384 10.3341 35.4308 10.5208 35.6538 10.6651C35.8768 10.8094 36.126 10.9083 36.3873 10.9562C36.6485 11.0042 36.9166 11.0002 37.1763 10.9445C38.8887 10.5774 40.6676 10.6679 42.3339 11.2067C44.0003 11.7455 45.4953 12.7137 46.6685 14.0139C47.8418 15.3141 48.6519 16.9004 49.0173 18.6132C49.3828 20.3259 49.2906 22.1047 48.7502 23.7705C48.5861 24.2827 48.6312 24.839 48.8757 25.3181C49.1202 25.7972 49.5442 26.1601 50.0553 26.3277C50.5675 26.4918 51.1238 26.4467 51.6029 26.2022C52.082 25.9577 52.4449 25.5337 52.6126 25.0226V25.0127C53.3712 22.6742 53.4999 20.177 52.9858 17.7729C52.4717 15.3687 51.333 13.1426 49.6843 11.3188L49.681 11.3155Z" fill="black"/>
<path d="M44.3313 16.1484C43.5288 15.2563 42.5046 14.5922 41.3627 14.2234C40.2208 13.8546 39.0017 13.7942 37.8289 14.0483C37.6046 14.0959 37.392 14.1873 37.203 14.3171C37.0141 14.4469 36.8525 14.6127 36.7277 14.8049C36.4754 15.1932 36.3878 15.6657 36.484 16.1186C36.5802 16.5715 36.8524 16.9676 37.2406 17.2198C37.6289 17.472 38.1014 17.5597 38.5543 17.4635C39.6839 17.225 40.9029 17.5761 41.731 18.4871C42.5591 19.4079 42.7877 20.6601 42.4233 21.7565C42.2832 22.1989 42.3232 22.6787 42.5347 23.0917C42.7462 23.5047 43.1121 23.8177 43.5529 23.9626C43.9952 24.1036 44.4754 24.064 44.8887 23.8524C45.3019 23.6408 45.6148 23.2744 45.759 22.8331C46.1298 21.6912 46.1931 20.4717 45.9424 19.2976C45.6918 18.1234 45.1361 17.0361 44.3313 16.1451V16.1484Z" fill="black"/>
<path d="M23.0485 36.0532C22.7371 36.5799 22.0647 36.8284 21.538 36.6131C21.0113 36.4044 20.8556 35.8048 21.1537 35.298C21.4651 34.7912 22.1177 34.5427 22.6344 34.7382C23.1512 34.9237 23.34 35.5133 23.0485 36.0532ZM20.2428 39.6374C19.3948 40.9922 17.5729 41.5851 16.2049 40.9624C14.86 40.3529 14.4559 38.7794 15.3039 37.4544C16.1419 36.1394 17.9009 35.5498 19.259 36.1195C20.637 36.7091 21.0809 38.2726 20.2428 39.6407V39.6374ZM23.4294 30.051C19.259 28.9645 14.5387 31.0447 12.7267 34.7183C10.8751 38.4647 12.6638 42.6385 16.8773 44.0033C21.2465 45.4111 26.4007 43.248 28.1928 39.2101C29.9617 35.245 27.7589 31.1772 23.4294 30.0477V30.051Z" fill="black"/>
</g>
<defs>
<clipPath id="clip0_201_1427">
<rect width="53" height="53" fill="white" transform="translate(0.294922)"/>
</clipPath>
</defs>
</svg>
