<svg width="53" height="53" viewBox="0 0 53 53" fill="none" xmlns="http://www.w3.org/2000/svg">
<g clip-path="url(#clip0_201_1421)">
<path d="M0 25.3272C0 13.3878 0 7.41816 3.70908 3.70908C7.41816 0 13.3878 0 25.3272 0H27.4378C39.3772 0 45.3468 0 49.0559 3.70908C52.765 7.41816 52.765 13.3878 52.765 25.3272V27.4378C52.765 39.3772 52.765 45.3468 49.0559 49.0559C45.3468 52.765 39.3772 52.765 27.4378 52.765H25.3272C13.3878 52.765 7.41816 52.765 3.70908 49.0559C0 45.3468 0 39.3772 0 27.4378V25.3272Z" fill="black"/>
<path d="M19.4182 36.9153L19.9012 37.1541C21.9142 38.3478 24.1686 38.9048 26.423 38.9048C33.5083 38.9048 39.3053 33.175 39.3053 26.1718C39.3053 22.8294 37.9365 19.5665 35.5211 17.179C33.1057 14.7915 29.885 13.4387 26.423 13.4387C19.3377 13.4387 13.5406 19.1686 13.6212 26.2514C13.6212 28.6388 14.3458 30.9468 15.5535 32.9362L15.8755 33.4138L14.5874 38.1091L19.4182 36.9153Z" fill="black"/>
<path d="M36.8898 15.9057C34.1523 13.1204 30.3682 11.6083 26.5035 11.6083C18.2911 11.6083 11.6889 18.2136 11.7693 26.2513C11.7693 28.7979 12.4939 31.265 13.7017 33.4933L11.6083 41.0535L19.4182 39.064C21.5921 40.2578 24.0074 40.8149 26.423 40.8149C34.5549 40.8149 41.1571 34.2095 41.1571 26.1719C41.1571 22.2723 39.6272 18.6115 36.8898 15.9057ZM26.5035 38.3479C24.3296 38.3479 22.1557 37.7909 20.3038 36.6767L19.8208 36.438L15.151 37.6316L16.3587 33.0956L16.0366 32.618C12.4939 26.9678 14.1848 19.4869 19.9818 15.9852C25.7788 12.4837 33.2667 14.1549 36.8094 19.8848C40.352 25.6147 38.6611 33.0158 32.8642 36.5175C31.0122 37.7112 28.7579 38.3479 26.5035 38.3479ZM33.5887 29.5144L32.7031 29.1165C32.7031 29.1165 31.4149 28.5594 30.6098 28.1614C30.5292 28.1614 30.4487 28.0818 30.3682 28.0818C30.1266 28.0818 29.9656 28.1614 29.8046 28.2411C29.8046 28.2411 29.7241 28.3206 28.5969 29.5939C28.5163 29.7531 28.3553 29.8327 28.1943 29.8327H28.1137C28.0333 29.8327 27.8723 29.7531 27.7917 29.6735L27.3891 29.5144C26.5035 29.1165 25.6984 28.6389 25.0542 28.0023C24.8932 27.8431 24.6516 27.684 24.4906 27.5248C23.927 26.9678 23.3634 26.331 22.9609 25.6148L22.8803 25.4557C22.7999 25.376 22.7999 25.2965 22.7193 25.1373C22.7193 24.9782 22.7193 24.819 22.7999 24.7394C22.7999 24.7394 23.1219 24.3415 23.3634 24.1028C23.5245 23.9435 23.6049 23.7049 23.766 23.5457C23.927 23.3069 24.0075 22.9886 23.927 22.7499C23.8465 22.3519 22.8803 20.2032 22.6388 19.7258C22.4777 19.487 22.3168 19.4075 22.0752 19.3278H21.1896C21.0285 19.3278 20.8676 19.4075 20.7064 19.4075L20.6259 19.487C20.4648 19.5666 20.3038 19.7258 20.1428 19.8053C19.9818 19.9646 19.9012 20.1236 19.7402 20.2829C19.1766 20.9991 18.8546 21.8745 18.8546 22.7499C18.8546 23.3865 19.0156 24.0232 19.2572 24.5803L19.3377 24.819C20.0624 26.331 21.0285 27.684 22.3168 28.8777L22.6388 29.196C22.8803 29.4348 23.1219 29.5939 23.2829 29.8326C24.9737 31.2652 26.906 32.2997 29.0799 32.8568C29.3215 32.9363 29.6435 32.9363 29.8851 33.0159H30.6902C31.0928 33.0159 31.5758 32.8568 31.898 32.6976C32.1395 32.5385 32.3005 32.5385 32.4615 32.3793L32.6226 32.2201C32.7836 32.0609 32.9447 31.9814 33.1057 31.8222C33.2667 31.6631 33.4277 31.5039 33.5083 31.3447C33.6693 31.0264 33.7497 30.6284 33.8303 30.2306V29.6735C33.8303 29.6735 33.7497 29.5939 33.5887 29.5144Z" fill="white"/>
</g>
<defs>
<clipPath id="clip0_201_1421">
<rect width="52.765" height="52.765" fill="white"/>
</clipPath>
</defs>
</svg>
