<svg width="54" height="53" viewBox="0 0 54 53" fill="none" xmlns="http://www.w3.org/2000/svg">
<g clip-path="url(#clip0_201_1403)">
<path d="M21.9309 34.0746V18.6903L35.6498 26.3825L21.9309 34.0746Z" fill="white"/>
<path d="M52.4767 14.0441C52.1764 12.9604 51.5885 11.9724 50.7716 11.1789C49.9548 10.3853 48.9378 9.81415 47.8223 9.52246C43.7144 8.4424 27.2074 8.4424 27.2074 8.4424C27.2074 8.4424 10.7004 8.4424 6.59246 9.52246C5.47699 9.81415 4.45995 10.3853 3.64312 11.1789C2.82629 11.9724 2.23833 12.9604 1.93808 14.0441C1.17104 18.1141 0.798821 22.245 0.826308 26.3825C0.798821 30.52 1.17104 34.6509 1.93808 38.7209C2.23833 39.8045 2.82629 40.7926 3.64312 41.5861C4.45995 42.3796 5.47699 42.9508 6.59246 43.2425C10.7004 44.3226 27.2074 44.3226 27.2074 44.3226C27.2074 44.3226 43.7144 44.3226 47.8223 43.2425C48.9378 42.9508 49.9548 42.3796 50.7716 41.5861C51.5885 40.7926 52.1764 39.8045 52.4767 38.7209C53.2437 34.6509 53.6159 30.52 53.5884 26.3825C53.6159 22.245 53.2437 18.1141 52.4767 14.0441ZM21.9312 34.0711V18.6939L35.6305 26.3825L21.9312 34.0711Z" fill="black"/>
</g>
<defs>
<clipPath id="clip0_201_1403">
<rect width="52.765" height="52.765" fill="white" transform="translate(0.82489)"/>
</clipPath>
</defs>
</svg>
