<svg width="54" height="53" viewBox="0 0 54 53" fill="none" xmlns="http://www.w3.org/2000/svg">
<g clip-path="url(#clip0_201_1423)">
<path d="M0.291626 25.44C0.291626 13.4474 0.291626 7.4512 4.01723 3.7256C7.74283 0 13.739 0 25.7316 0H27.8516C39.8442 0 45.8404 0 49.5661 3.7256C53.2916 7.4512 53.2916 13.4474 53.2916 25.44V27.56C53.2916 39.5526 53.2916 45.5487 49.5661 49.2744C45.8404 53 39.8442 53 27.8516 53H25.7316C13.739 53 7.74283 53 4.01723 49.2744C0.291626 45.5487 0.291626 39.5526 0.291626 27.56V25.44Z" fill="black"/>
<path d="M21.4916 41.34L15.6616 36.57L12.6613 40.4705C11.4013 42.1084 11.7407 44.463 13.4119 45.6784C14.9759 46.8158 17.154 46.5452 18.392 45.0595L21.4916 41.34Z" fill="white"/>
<path d="M44.2816 26.5C37.3916 29.15 22.7283 34.45 15.6616 36.57L21.4916 41.34L25.2016 43.99C29.4416 46.534 32.2683 43.8133 33.1516 42.4L44.2816 26.5Z" fill="white"/>
<path d="M10.807 26.4892L12.4816 24.38C20.785 21.2 38.7696 14.522 44.2816 13.25C45.6949 15.5467 47.6736 21.412 44.2816 26.5C35.9783 29.8567 18.6297 36.57 15.6616 36.57L12.4817 33.92C8.64285 30.8034 9.78022 27.802 10.807 26.4892Z" fill="white"/>
<path d="M36.3316 6.89C29.9716 4.34601 24.495 7.95 22.5516 10.07L12.4816 24.38C22.0216 21.2 34.2116 16.43 44.2816 13.25C38.7696 8.16202 36.685 6.88999 36.3316 6.89Z" fill="white"/>
</g>
<defs>
<clipPath id="clip0_201_1423">
<rect width="52.765" height="52.765" fill="white" transform="translate(0.529907)"/>
</clipPath>
</defs>
</svg>
